<svg xmlns="http://www.w3.org/2000/svg" viewBox="0 0 335.201 130.353">
  <g>
    <path d="M104,29.537a3.148,3.148,0,0,0-4.084-1.387c-.979.34-2.565,2.349-2.565,2.349-.757.841-6.2,12.347-10.711,20.232s-3.948,2.482-3.815-.081a25.447,25.447,0,0,1,1.461-6.89c.6-1.668,2.024-8.339,2.71-10.89.742-2.765,1.656-7.062,2.907-11.749,1.561-5.848-.809-6.842-.809-6.842-4.241-2.663-5.5.885-5.5.885-.543.891-4.3,15.38-4.3,15.38-.5,2.705-4.226,15.058-5.925,18.055s-3.114.3-3.021-1.593.193-3.592.428-7.8c.253-4.57.3-6.252.3-6.252.727-3.671,1.619-13.51,1.619-13.51l.756-7.274c.1-1.9.8-3.318-1.832-4.821-2.718-1.555-4.352-.2-5.051.876S64.923,14.4,64.923,14.4a36.192,36.192,0,0,1-.38,4.649C64.3,20.119,63,29.753,63,29.753c-1.047,3.6-1.8,14.822-1.8,14.822-.671,8.874-6.472,6-6.755.939-.2-3.579-2.4-13.189-2.921-14.886s-2.881-13.071-2.881-13.071c-.149-.825-1.587-4.045-3.94-3.5-2.322.539-4.034.545-3.389,5.129.464,3.286,1.761,16.841,2.381,18.562s1.63,7.2,1.63,7.2A51.126,51.126,0,0,0,46.3,53.6a46.255,46.255,0,0,0,6.608.113,7.8,7.8,0,0,1,4.532,1.21A9.254,9.254,0,0,0,62,56.528a9,9,0,0,1,3.756.4,7.936,7.936,0,0,0,3.652.648c1.566-.042,2.734.117,2.4,1.679-.213.989-1.76,1.947-3.164,2.223s-3.291-.643-4.734-.494c-4.352.448-5.187-.621-5.942.116A2.43,2.43,0,0,0,58,63.582a31.983,31.983,0,0,1,1.713,3.8,6.294,6.294,0,0,0,2.007,2.37,25.3,25.3,0,0,1,3.259,2.985S67,74.371,67.745,74.791s5.33,4.825,6.494,5.848c1.624,1.426,1.02,1.949.362,2.849s-2.157.208-2.46-.04c0,0-4.3-3.3-5-3.749a53.041,53.041,0,0,1-5.567-4.381c-1.64-1.7-4.57-.956-2.107,2.389a55.351,55.351,0,0,1,3.874,5.8s2.474,3.806,2.713,4.26a16.9,16.9,0,0,0,1.28,1.763,15.725,15.725,0,0,1,1.3,2.682c.082.6-.086,1.572-1.522,1.849-1.389.27-1.573-.446-2.116-1.148l-1.948-2.805s-2.679-3.756-3.539-5.277c0,0-.5-.608-1.8-2.3-1.2-1.561-1.68-2.192-2.224-2.89s-1.865-1.225-1.555.355a53.824,53.824,0,0,0,3.4,8.2s3.079,6.275,3.158,6.755c0,0,.633,1.641-1.679,1.989,0,0-1.143.372-2.37-2.176-.984-2.039-1.968-3.839-2.548-5.044-.533-1.113-2.061-3.907-2.355-4.68a11.84,11.84,0,0,0-1.579-2.884c-.733-.949-2.182-3.032-1.376,1.132s2.377,9.9,2.365,10.425a4.416,4.416,0,0,1-.194,1.612,1.47,1.47,0,0,1-1.869.754s-.851-.073-1.355-2.015c0,0-2.738-8.6-3-10.088s-.881-4.582-2.558-6.608a34.249,34.249,0,0,1-3.516-4.76,37.186,37.186,0,0,0-7.792-7.074c-2.549-1.772-4.332-5.9-6.995-7.41s-6.51-2.119-8.238-.811c-2.726,2.064-1.051,3.953,1.549,6.07A17.017,17.017,0,0,1,22,69.524c1.258,2.883,5.536,5.892,5.536,5.892,1.816,1.43,3.942,4.959,5.171,8.962a16.726,16.726,0,0,0,5.665,8.288c1.842,1.324,15.361,12.209,16.866,18.517,1.368,5.735,26.426,10.607,27.216-10.53a27.973,27.973,0,0,1,1.422-6.215C89.254,84.724,89,74.968,89.1,69.575c.107-5.63,3.419-11.516,5.07-14.3S103.381,34.7,103.381,34.7C105.276,30.844,104,29.537,104,29.537Z" fill="#2b3990"/>
    <path d="M126.86,23.851h6.707a15.954,15.954,0,0,1,6.221.96,7.627,7.627,0,0,1,3.434,2.948,8.082,8.082,0,0,1,1.261,4.418,7.933,7.933,0,0,1-1.105,4.127,8.178,8.178,0,0,1-3.246,3.019,12.584,12.584,0,0,1,4.082,2.116,8.462,8.462,0,0,1,2.225,2.937,8.809,8.809,0,0,1,.8,3.735,9.167,9.167,0,0,1-3,6.927,11.211,11.211,0,0,1-8.035,2.833H126.86Zm3.331,3.331V38.075h1.946a15.19,15.19,0,0,0,5.215-.66,5.621,5.621,0,0,0,2.642-2.081,5.468,5.468,0,0,0,.973-3.157,4.469,4.469,0,0,0-1.634-3.665q-1.633-1.331-5.2-1.33Zm0,14.315V54.54h4.216a15.145,15.145,0,0,0,5.467-.727,6.215,6.215,0,0,0,2.791-2.278,5.948,5.948,0,0,0-.428-7.309,7.614,7.614,0,0,0-4.074-2.312,29.732,29.732,0,0,0-6.049-.417Z" fill="#e14627"/>
    <path d="M169.692,23a17.655,17.655,0,0,1,12.935,5.156,17.177,17.177,0,0,1,5.208,12.7,18,18,0,0,1-30.64,12.7,17.03,17.03,0,0,1-5.207-12.536,18.125,18.125,0,0,1,2.371-9.088A17.522,17.522,0,0,1,169.692,23Zm.149,3.307a14.007,14.007,0,0,0-7.157,1.967,14.171,14.171,0,0,0-5.282,5.3A14.743,14.743,0,0,0,155.5,41a14.306,14.306,0,0,0,14.338,14.419,14.552,14.552,0,0,0,7.332-1.921,13.748,13.748,0,0,0,5.258-5.253,14.76,14.76,0,0,0,1.888-7.407,14.4,14.4,0,0,0-1.888-7.326,14.109,14.109,0,0,0-5.316-5.242A14.382,14.382,0,0,0,169.841,26.3Z" fill="#e14627"/>
    <path d="M190.668,51.535l2.891-1.736q3.054,5.622,7.054,5.62a6.752,6.752,0,0,0,3.214-.8,5.645,5.645,0,0,0,2.29-2.138,5.54,5.54,0,0,0,.787-2.845,5.772,5.772,0,0,0-1.157-3.354,27.733,27.733,0,0,0-5.828-5.458,29.749,29.749,0,0,1-5.3-4.648,8.5,8.5,0,0,1-1.8-5.2,7.905,7.905,0,0,1,1.064-4.049,7.575,7.575,0,0,1,2.995-2.878,8.648,8.648,0,0,1,4.2-1.052,8.94,8.94,0,0,1,4.5,1.191A15.459,15.459,0,0,1,210,28.569l-2.776,2.105a13.319,13.319,0,0,0-3.272-3.355,5.655,5.655,0,0,0-2.949-.809,4.667,4.667,0,0,0-3.365,1.249,4.091,4.091,0,0,0-1.307,3.077,5.223,5.223,0,0,0,.463,2.15,7.941,7.941,0,0,0,1.688,2.267q.67.648,4.395,3.4a24.765,24.765,0,0,1,6.058,5.805,9.355,9.355,0,0,1,1.643,5.112,8.681,8.681,0,0,1-2.81,6.43,9.453,9.453,0,0,1-6.834,2.728,10.02,10.02,0,0,1-5.62-1.654A15.143,15.143,0,0,1,190.668,51.535Z" fill="#e14627"/>
    <path d="M213.923,27.182V23.851h18.64v3.331h-7.585V57.871h-3.469V27.182Z" fill="#e14627"/>
    <path d="M253.193,23a17.657,17.657,0,0,1,12.936,5.156,17.173,17.173,0,0,1,5.208,12.7,18,18,0,0,1-30.64,12.7,17.03,17.03,0,0,1-5.207-12.536,18.135,18.135,0,0,1,2.371-9.088A17.522,17.522,0,0,1,253.193,23Zm.15,3.307a14.007,14.007,0,0,0-7.157,1.967,14.161,14.161,0,0,0-5.281,5.3,14.732,14.732,0,0,0-1.9,7.43,14.3,14.3,0,0,0,14.337,14.419,14.552,14.552,0,0,0,7.332-1.921,13.748,13.748,0,0,0,5.258-5.253,14.76,14.76,0,0,0,1.888-7.407,14.4,14.4,0,0,0-1.888-7.326,14.109,14.109,0,0,0-5.316-5.242A14.382,14.382,0,0,0,253.343,26.3Z" fill="#e14627"/>
    <path d="M277.708,57.871V23.851h.74l22.641,26.078V23.851h3.354v34.02h-.763l-22.457-25.76v25.76Z" fill="#e14627"/>
    <g>
      <rect x="117.703" y="67.412" width="197.843" height="42.794" fill="#e14627"/>
      <path d="M127.711,74.818h5.431l6.983,19.715,7.084-19.715h5.424l-10,27.752h-5.093Z" fill="#fff"/>
      <path d="M165.557,81.516a10.883,10.883,0,0,1,5.462,1.452,10.647,10.647,0,0,1,5.424,9.32A10.785,10.785,0,0,1,175,97.722a10.431,10.431,0,0,1-3.933,3.952,10.873,10.873,0,0,1-5.491,1.424,10.24,10.24,0,0,1-7.537-3.141,10.881,10.881,0,0,1,.406-15.649A10.307,10.307,0,0,1,165.557,81.516Zm.085,4.848a5.3,5.3,0,0,0-4,1.67,5.926,5.926,0,0,0-1.6,4.273,6.042,6.042,0,0,0,1.577,4.339,5.278,5.278,0,0,0,4,1.66,5.338,5.338,0,0,0,4.026-1.679,6.621,6.621,0,0,0,.028-8.613A5.339,5.339,0,0,0,165.642,86.364Z" fill="#fff"/>
      <path d="M179.7,74.12h5.15v28.45H179.7Z" fill="#fff"/>
      <path d="M189.122,82.044h5.207V91.93a13.706,13.706,0,0,0,.4,4.008A3.5,3.5,0,0,0,196,97.684a3.658,3.658,0,0,0,2.165.622,3.791,3.791,0,0,0,2.185-.613,3.592,3.592,0,0,0,1.333-1.8,13.825,13.825,0,0,0,.322-3.792V82.044h5.15v8.7q0,5.376-.849,7.357a8.02,8.02,0,0,1-3.057,3.708,9.354,9.354,0,0,1-5.131,1.292,9.1,9.1,0,0,1-5.462-1.509,7.973,7.973,0,0,1-2.933-4.207,25.473,25.473,0,0,1-.6-6.791Z" fill="#fff"/>
      <path d="M211.941,82.044h5.15v2.1a12.347,12.347,0,0,1,3.174-2.054,7.677,7.677,0,0,1,2.911-.577,7.041,7.041,0,0,1,5.181,2.132,7.317,7.317,0,0,1,1.79,5.357V102.57h-5.094V93.581a22.7,22.7,0,0,0-.33-4.881,3.347,3.347,0,0,0-1.148-1.837,3.219,3.219,0,0,0-2.023-.631,3.787,3.787,0,0,0-2.682,1.047,5.568,5.568,0,0,0-1.553,2.892,23.281,23.281,0,0,0-.226,4.165v8.234h-5.15Z" fill="#fff"/>
      <path d="M235.364,74.479h5.15v7.565h3.056v4.433h-3.056V102.57h-5.15V86.477h-2.642V82.044h2.642Z" fill="#fff"/>
      <path d="M266.5,93.8H249.957a5.5,5.5,0,0,0,1.915,3.48,6.005,6.005,0,0,0,3.971,1.292,6.862,6.862,0,0,0,4.961-2.017l4.34,2.037A10.245,10.245,0,0,1,261.258,102a12.169,12.169,0,0,1-5.377,1.1,10.626,10.626,0,0,1-7.867-3.047,10.365,10.365,0,0,1-3.038-7.631,10.721,10.721,0,0,1,3.028-7.8,10.169,10.169,0,0,1,7.594-3.1,10.547,10.547,0,0,1,7.886,3.1,11.214,11.214,0,0,1,3.037,8.2Zm-5.151-4.057a5.165,5.165,0,0,0-2.013-2.791,5.834,5.834,0,0,0-3.486-1.076,6.169,6.169,0,0,0-3.78,1.208,6.733,6.733,0,0,0-1.89,2.659Z" fill="#fff"/>
      <path d="M290.85,93.8H274.3a5.5,5.5,0,0,0,1.916,3.48,6,6,0,0,0,3.971,1.292,6.864,6.864,0,0,0,4.961-2.017l4.339,2.037A10.245,10.245,0,0,1,285.605,102a12.166,12.166,0,0,1-5.377,1.1,10.627,10.627,0,0,1-7.867-3.047,10.369,10.369,0,0,1-3.038-7.631,10.718,10.718,0,0,1,3.029-7.8,10.167,10.167,0,0,1,7.593-3.1,10.55,10.55,0,0,1,7.886,3.1,11.214,11.214,0,0,1,3.038,8.2ZM285.7,89.74a5.171,5.171,0,0,0-2.014-2.791,5.832,5.832,0,0,0-3.486-1.076,6.169,6.169,0,0,0-3.78,1.208,6.733,6.733,0,0,0-1.89,2.659Z" fill="#fff"/>
      <path d="M293.425,82.044h4.415v2.584a5.508,5.508,0,0,1,1.905-2.321,4.6,4.6,0,0,1,2.6-.791,4.822,4.822,0,0,1,2.094.528l-1.6,4.433a3.547,3.547,0,0,0-1.491-.453A2.359,2.359,0,0,0,299.34,87.5q-.822,1.473-.821,5.774l.019,1v8.3h-5.113Z" fill="#fff"/>
    </g>
  </g>
</svg>
