<?xml version="1.0" encoding="utf-8"?>
<!-- Generator: Adobe Illustrator 27.3.1, SVG Export Plug-In . SVG Version: 6.00 Build 0)  -->
<svg version="1.1" xmlns="http://www.w3.org/2000/svg" xmlns:xlink="http://www.w3.org/1999/xlink" x="0px" y="0px"
	 viewBox="0 0 297 275" style="enable-background:new 0 0 297 275;" xml:space="preserve">
<style type="text/css">
	.st0{fill:#1C75BC;}
	.st1{fill:#FFFFFF;}
	.st2{fill:#9BC13C;}
	
		.st3{clip-path:url(#SVGID_00000006680629889677045470000005254147179861511358_);fill:none;stroke:#0069B5;stroke-width:1.9708;stroke-miterlimit:6.385;}
	.st4{fill:#0069B5;}
	
		.st5{clip-path:url(#SVGID_00000168093075791220606370000010534568897505119401_);fill:none;stroke:#9BC13C;stroke-width:1.9708;stroke-miterlimit:6.385;}
	.st6{fill:#E81E25;}
</style>
<g id="KMB">
</g>
<g id="Affilate_Logo">
	<path class="st0" d="M147.1,261.3c53.6,0,99.3-34,116.6-81.6c-5.5,1.1-8.5-0.5-8.5-0.5c-7.5,4.4-14.1,2.7-17.4,1.2
		c-15.9,33.4-50.1,56.5-89.6,56.5c-28.9,0-54.9-12.3-73.1-32c-7.3-0.1-9.2-2.9-9.2-2.9c-1.5,4.7-12,9.4-16.7,11.3
		C71.7,242.5,107.2,261.3,147.1,261.3z"/>
	<g>
		<path class="st0" d="M49,145c0-0.8-0.1-1.6-0.1-2.4c0-58.5,44.7-105.8,99.9-105.8c55.2,0,99.9,47.4,99.9,105.8
			c0,0.8,0,1.6-0.1,2.4c1.7,0.6,4.1,1.4,5.3,2.2c0,0,3.3-18.6,15.5-35.1c-12.7-56.8-62-99.2-120.8-99.2
			c-68.5,0-124.1,57.4-124.1,128.3c0,4,0.2,7.9,0.5,11.8C29.5,150.8,38.2,147,49,145z"/>
	</g>
	<g>
		<path class="st1" d="M66.2,52.5l2.1-1.9l4.4,5l0,0l0.5-9.4l2.8-2.5L75.3,54l11.4,1l-2.9,2.6l-10.3-1.2l0,0l5.1,5.8l-2.1,1.9
			L66.2,52.5z"/>
		<path class="st1" d="M79.7,41.1l8.6-5.9l1.4,2l-6.3,4.3l2.2,3.2l6-4.1l1.3,1.9l-6,4.1l2.5,3.6l6.6-4.5l1.4,2l-9,6.1L79.7,41.1z"/>
		<path class="st1" d="M93,32.5l9.3-4.7l1.1,2.1l-6.8,3.5l1.8,3.5l6.4-3.3l1.1,2.1l-6.4,3.3l2,3.9l7.2-3.7l1.1,2.2l-9.6,4.9L93,32.5
			z"/>
		<path class="st1" d="M107.3,25.6l4.8-1.7c0.9-0.3,1.6-0.5,2.4-0.6c0.7-0.1,1.4-0.1,2,0.1c0.6,0.2,1.1,0.5,1.6,0.9
			c0.5,0.4,0.8,1,1.1,1.8c0.3,0.8,0.4,1.5,0.3,2.2c-0.1,0.7-0.4,1.2-0.8,1.8c-0.4,0.5-0.9,1-1.6,1.4c-0.6,0.4-1.4,0.7-2.1,1l-2,0.7
			l2.1,6l-2.6,0.9L107.3,25.6z M114.1,30.3c0.4-0.2,0.8-0.3,1.2-0.5s0.7-0.4,0.9-0.7c0.3-0.3,0.4-0.6,0.5-0.9c0.1-0.3,0-0.7-0.1-1.2
			c-0.1-0.4-0.4-0.7-0.6-0.9c-0.3-0.2-0.6-0.3-0.9-0.4c-0.4,0-0.7,0-1.1,0.1c-0.4,0.1-0.8,0.2-1.2,0.3l-1.9,0.7l1.5,4.2L114.1,30.3z
			"/>
		<path class="st1" d="M129.4,19.1l6.1-0.8c0.6-0.1,1.2-0.1,1.8,0c0.6,0.1,1.1,0.2,1.6,0.5s0.9,0.6,1.3,1c0.3,0.5,0.6,1,0.7,1.7
			c0.1,0.9,0,1.6-0.5,2.2c-0.4,0.6-1,1.1-1.8,1.5l0,0c1,0,1.9,0.3,2.6,0.8c0.7,0.5,1.1,1.3,1.3,2.4c0.1,0.8,0,1.6-0.2,2.2
			c-0.3,0.6-0.6,1.1-1.1,1.6c-0.5,0.4-1.1,0.8-1.8,1c-0.7,0.2-1.4,0.4-2.1,0.5l-5.6,0.8L129.4,19.1z M133.1,24.9l2.5-0.3
			c0.9-0.1,1.6-0.4,2-0.8s0.6-1,0.5-1.6c-0.1-0.7-0.4-1.1-1-1.4c-0.5-0.2-1.3-0.3-2.4-0.1l-2.2,0.3L133.1,24.9z M134,31.7l2.5-0.3
			c0.4,0,0.7-0.1,1.1-0.2c0.4-0.1,0.8-0.3,1.1-0.5c0.3-0.2,0.6-0.5,0.8-0.8c0.2-0.3,0.2-0.8,0.2-1.3c-0.1-0.8-0.5-1.3-1.1-1.6
			c-0.6-0.2-1.5-0.3-2.6-0.1l-2.6,0.4L134,31.7z"/>
		<path class="st1" d="M145.3,24.7c0-1.2,0.3-2.3,0.8-3.3c0.5-1,1.1-1.8,1.8-2.5s1.7-1.2,2.7-1.5c1-0.3,2.2-0.5,3.4-0.4
			c1.2,0,2.4,0.3,3.4,0.7c1,0.4,1.9,1,2.6,1.7c0.7,0.7,1.3,1.6,1.7,2.6c0.4,1,0.6,2.1,0.5,3.4c0,1.2-0.3,2.3-0.8,3.3
			s-1.1,1.8-1.9,2.5c-0.8,0.7-1.7,1.2-2.8,1.6c-1.1,0.4-2.2,0.5-3.4,0.5c-1.2,0-2.3-0.3-3.3-0.7c-1-0.4-1.9-1-2.6-1.8
			c-0.7-0.7-1.3-1.6-1.7-2.6C145.5,27,145.3,25.9,145.3,24.7z M148.4,24.8c0,0.8,0.1,1.6,0.3,2.3c0.2,0.7,0.6,1.3,1,1.8
			s1,0.9,1.7,1.2c0.6,0.3,1.4,0.5,2.2,0.5s1.5-0.1,2.2-0.3c0.7-0.3,1.3-0.6,1.8-1.1c0.5-0.5,0.9-1.1,1.2-1.8
			c0.3-0.7,0.4-1.4,0.5-2.3c0-0.8-0.1-1.5-0.3-2.2c-0.2-0.7-0.6-1.3-1-1.8c-0.5-0.5-1-0.9-1.7-1.3c-0.7-0.3-1.4-0.5-2.2-0.5
			c-0.8,0-1.6,0.1-2.2,0.4c-0.7,0.3-1.3,0.6-1.7,1.1s-0.9,1.1-1.2,1.7S148.4,24,148.4,24.8z"/>
		<path class="st1" d="M174.5,23.1c-0.2-0.4-0.6-0.8-1.1-1.1c-0.5-0.3-1-0.6-1.6-0.6c-0.3-0.1-0.7-0.1-1,0c-0.3,0-0.6,0.1-0.9,0.2
			c-0.3,0.1-0.5,0.3-0.8,0.5s-0.3,0.5-0.4,0.9c-0.1,0.3,0,0.7,0.1,0.9c0.1,0.3,0.3,0.5,0.5,0.7c0.2,0.2,0.5,0.4,0.9,0.6
			c0.3,0.2,0.7,0.4,1.1,0.6c0.5,0.2,1,0.5,1.5,0.8c0.5,0.3,0.9,0.6,1.3,1c0.4,0.4,0.7,0.9,0.9,1.4c0.2,0.5,0.2,1.2,0.1,1.9
			c-0.1,0.8-0.4,1.5-0.8,2.1c-0.4,0.6-0.9,1-1.5,1.3c-0.6,0.3-1.2,0.5-1.9,0.6c-0.7,0.1-1.5,0.1-2.2-0.1c-1-0.2-2-0.5-2.9-1
			s-1.6-1.2-2.1-2l2.3-1.5c0.3,0.6,0.7,1.1,1.3,1.5s1.2,0.7,1.8,0.8c0.3,0.1,0.7,0.1,1,0s0.7-0.1,1-0.2s0.6-0.3,0.8-0.6
			c0.2-0.3,0.4-0.6,0.4-1c0.1-0.4,0-0.8-0.1-1c-0.1-0.3-0.4-0.6-0.7-0.8c-0.3-0.2-0.6-0.5-1.1-0.7s-0.9-0.4-1.3-0.7
			c-0.4-0.2-0.9-0.5-1.3-0.7c-0.4-0.3-0.8-0.6-1.1-1s-0.6-0.8-0.7-1.4c-0.2-0.5-0.2-1.1-0.1-1.9c0.1-0.8,0.4-1.4,0.8-1.9
			c0.4-0.5,0.9-0.9,1.5-1.2c0.6-0.3,1.2-0.5,2-0.5c0.7-0.1,1.4,0,2.1,0.1c0.8,0.1,1.6,0.4,2.3,0.8c0.8,0.4,1.4,0.9,1.9,1.6
			L174.5,23.1z"/>
		<path class="st1" d="M184.6,24.8l-4.6-1.4l0.7-2.3l11.9,3.7l-0.7,2.3l-4.6-1.4l-3.9,12.5l-2.7-0.8L184.6,24.8z"/>
		<path class="st1" d="M192.3,32.7c0.5-1.1,1.2-2,2-2.7c0.8-0.7,1.7-1.2,2.7-1.5c1-0.3,2-0.4,3.1-0.3c1.1,0.1,2.2,0.4,3.3,1
			c1.1,0.5,2,1.2,2.8,2c0.8,0.8,1.3,1.7,1.7,2.6c0.4,1,0.5,2,0.5,3.1c-0.1,1.1-0.4,2.2-0.9,3.3c-0.5,1.1-1.2,2-2,2.7
			c-0.8,0.7-1.7,1.2-2.7,1.5c-1,0.3-2,0.4-3.2,0.3c-1.1-0.1-2.2-0.4-3.3-1c-1.1-0.5-2-1.2-2.8-2s-1.3-1.7-1.7-2.7
			c-0.4-1-0.5-2-0.5-3.1C191.5,34.9,191.8,33.8,192.3,32.7z M195.1,34.1c-0.4,0.7-0.6,1.5-0.6,2.2c-0.1,0.7,0,1.4,0.2,2.1
			c0.2,0.7,0.6,1.3,1,1.8c0.5,0.5,1.1,1,1.8,1.3c0.7,0.4,1.4,0.5,2.2,0.6c0.7,0,1.4-0.1,2.1-0.3c0.7-0.2,1.3-0.6,1.8-1.1
			c0.5-0.5,1-1.1,1.3-1.9c0.3-0.7,0.6-1.4,0.6-2.2c0.1-0.7,0-1.4-0.2-2.1c-0.2-0.7-0.5-1.3-1-1.8s-1.1-1-1.8-1.4s-1.5-0.5-2.2-0.6
			c-0.7,0-1.4,0.1-2.1,0.3s-1.2,0.6-1.8,1.1S195.4,33.4,195.1,34.1z"/>
		<path class="st1" d="M215.8,36.4l3,2.2l-1.2,13.6l0,0l7-9.2l2.2,1.7l-9.3,12.3l-2.8-2.1l1.3-14l0,0l-7.2,9.5l-2.2-1.7L215.8,36.4z
			"/>
	</g>
	<g>
		<g>
			<path class="st2" d="M175.7,117.5c-0.3,0.3-0.3,0.6-0.3,0.9c0,1-0.3,1.9-1.2,2.6c-0.2,0.2-0.4,0.4-0.5,0.6c-0.8,1-0.8,1-2,0.4
				c-1.9-0.9-3.6-2.1-5.3-3.3c-0.5-0.3-0.7-0.7-0.7-1.2c0-0.2-0.1-0.5-0.1-0.7c-0.1-0.9-0.5-1.5-1.5-1.6c-0.9-0.1-1.4-0.6-1.7-1.4
				c-0.6-1.5-1.4-2.8-3-3.6c-1.2-0.6-2.4-0.8-3.7-0.3c-2.4,0.8-4.7,2-6.9,3.1c-1.8,0.9-3.7,1.7-5.6,2.5c-0.2,0.1-0.5,0.2-0.8,0.2
				c-2.2-0.1-4.1,0.8-6.1,1.5c-7.8,2.9-15.7,5.4-23.1,9c-1.1,0.5-2.3,1.1-3.4,1.6c-0.4,0.2-0.9,0.3-1.4,0.2c-0.7-0.1-1.3,0-2,0.3
				c-2.1,1-4.1,2-6.2,3c-0.5,0.2-1,0.4-1.5,0.5c-2.5,0.1-4.8,1-7.1,1.9c-3.7,1.5-7.5,2.6-11.2,3.9c-0.7,0.2-1.4,0.4-2,0.7
				c-0.4,0.2-0.9-0.1-1.4,0.3c0,0-0.2-0.1-0.4-0.2c-0.4-0.1-0.2-0.7-0.3-0.7c-0.6,0.3-0.4-0.4-0.6-0.5c-0.3,0.7-0.2,0.7,1,1.6
				c-0.1,0.2-0.3,0.2-0.5,0.2c-1.5,0.5-3,1-4.4,1.5c-0.5,0.2-0.8,0-1.2-0.2c-0.7-0.5-0.9-1.3-1.5-1.8c-0.1-0.1-0.1-0.4-0.1-0.6
				c-0.4-3.5-1-6.9-1.3-10.4c-0.3-3.7-1-7.3-1.3-11c-0.3-3.6-0.9-7.1-1.3-10.7c-0.2-1.9-0.3-3.8,0-5.7c0.1-0.7,0.4-1,1.2-1.2
				c1.3-0.3,2.7-0.6,3.9-1.2c2.8-1.3,5.7-2,8.6-3c4-1.4,8-2.6,11.9-4.1c2.4-1,4.8-1.8,7.3-2.5c1.5-0.4,3-0.9,4.5-1.6
				c4.6-1.9,9.4-3.3,14.1-4.9c1.1-0.4,2.1-0.8,3.2-1.2c0.4-0.2,0.8-0.4,1.3-0.3c0.1,0,0.3,0,0.4-0.1c0.3-0.4,0.6-0.4,1-0.1
				c0.2,0.1,0.5,0.1,0.7-0.2c-0.2-0.2-0.5,0.1-0.7-0.2c0.5-0.4,0.7-0.4,1.2,0.1c0.1,0.1,0.1,0.1,0.2,0c0.2-0.1,0.5-0.1,0.8,0
				c-0.8-0.8-0.1-0.9,0.4-1.1c5.5-2.1,11-4.2,16.5-6.1c1.6-0.5,3.1-1.3,4.6-1.8c1-0.3,1.3-1.4,1.9-2.2c1.8-2.3,3.2-4.8,4.2-7.5
				c0.1-0.3,0.4-0.5,0.7-0.5c0.7,0,1-0.4,1.3-1c0.3-0.6,0.4-1.3,1.2-1.5c0.3-0.1,0.3-0.4,0.2-0.6c-0.2-0.6,0.1-1,0.6-1.4
				c0.7-0.6,1.4-1.1,2-1.7c0.9-1,2.2-1.2,3.5-1.5c1.4-0.3,1.4-0.3,1.4,1.1c0,0.2,0,0.5,0,0.7c-0.1,1.6-0.1,1.6,1.4,2.3
				c0.3,0.2,0.7,0.3,1,0.4c0.5,0.2,0.9,0.5,1,1.1c0.2,0.5,0.3,1,0.5,1.5c0.3,0.7,0.8,1.3,1.4,1.8c0.5,0.4,1.1,0.7,1.7,1
				c0.7,0.4,1.4,0.6,2.2,0.2c0.6-0.3,1.3-0.4,2-0.7c0.2-0.1,0.5-0.2,0.3-0.4c-0.5-0.5,0-0.6,0.4-0.7c0.7-0.3,1.4-0.5,2.1-0.7
				c0.5-0.2,0.8,0,0.7,0.6c0,0.9-0.1,1.7-0.1,2.6c0,0.5-0.3,0.9-0.6,1.2c-1.6,1.4-3.1,2.8-4.8,4.1c-1.5,1.2-2.1,2.8-2.6,4.5
				c-0.2,0.6-0.3,1.2,0.3,1.7c0.3,0.2,0.2,0.5,0,0.8c-0.7,1-1.2,2-2,2.9c-0.5,0.6-0.5,1.1-0.1,1.7c0.5,0.6,1,1.3,1.4,1.9
				c0.3,0.5,0.3,0.7-0.3,0.8c-0.9,0.1-1.8,0.2-2.6,0.4c-0.2,0-0.5,0-0.6,0.2c-0.1,0.2,0.1,0.4,0.2,0.5c1.6,1.8,3.5,3.1,5.8,3.8
				c0.7,0.2,1.2,0.2,1.7-0.3c0.6-0.5,1.2-0.9,1.8-1.4c0.7-0.6,1.4-0.8,2.3-0.7c1.1,0.1,2.2,0.3,3.3,0.5c0.3,0,0.5,0.2,0.7,0.3
				c2.3,1.6,4.6,3.2,6.9,4.8c1.3,0.9,2.3,1.9,3.4,2.9c0.1,0.1,0.4,0.3,0.3,0.5c-0.1,0.3-0.4,0.1-0.6,0.1c-0.6-0.1-1.2-0.3-1.7-0.4
				c-0.6-0.1-0.8,0-0.8,0.6c0,0.6,0.1,1.2,0.2,1.7c0.1,0.6,0.5,1,1.2,1.2c2,0.5,4,1,6.1,1c0.8,0,1,0.5,1.3,1.1
				c0.7,1.4,1.4,2.8,2.4,3.9c1,1.1,2.3,2.1,3.7,2.8c0.5,0.2,1,0.3,1.6,0c1.8-0.7,3.6-1.1,5.5-0.4c1,0.3,1.8,0,2.3-0.8
				c1.1-1.6,2.7-2.9,4.1-4.2c1.6-1.4,2.8-3,4.1-4.6c0.6-0.7,0.5-1.4,0.2-2.1c-0.6-1.2-1.3-2.5-1.9-3.7c-0.3-0.6-0.8-0.9-1.6-0.8
				c-0.4,0.1-0.8,0.1-1.1,0.2c-0.7,0.3-1.1,0-1.4-0.6c-0.4-0.7-0.7-1.4-1.1-2.1c-0.2-0.4-0.5-0.7-1-0.8c-1.2-0.3-2.2-0.9-3.3-1.4
				c-0.7-0.3-1.3-0.5-2-0.5c-0.8-0.1-1.6,0-2.4-0.1c0.8-0.6,1.6-0.7,2.4-0.9c2.8-0.9,5.3,0,7.7,1.2c3.8,1.9,6.3,4.9,8.3,8.4
				c0.9,1.6,1.7,3.3,2.4,5c0.3,0.7,0.3,1.4-0.1,2.1c-0.4,0.6-0.4,1.2-0.4,1.9c0,0.9-0.1,1-1,1.3c-1.1,0.3-2,0.8-2.9,1.4
				c-3.7,2.5-7.7,4.5-11,7.5c-0.4,0.4-0.8,0.5-1.3,0.2c-0.8-0.4-1.3-0.2-1.4,0.7c-0.1,0.7-0.1,1.4-0.1,2.1c0,0.8-0.4,1.4-1,1.9
				c-1.6,1.4-3.2,2.7-5.3,3.6c-1,0.4-1.4,0.4-1.7-0.6c-0.9-2.3-1.9-4.5-2.5-6.9c-0.1-0.6,0-1.2-0.1-1.7c0-0.2,0-0.5-0.3-0.6
				c-0.3-0.1-0.5,0.1-0.6,0.2c-0.7,0.6-1.4,1.2-2.1,1.8c-0.6,0.5-0.9,1.2-1.1,2c-0.3,1.7-1.4,2.9-2.7,4c-1.8,1.4-2.4,3.2-2.6,5.2
				c-0.1,0.6-0.1,1.2-0.2,1.8c-0.2,0.9-0.5,1.1-1.4,1.1c-0.2,0-0.4,0-0.6,0c-1.4-0.2-2.2,0.6-2.8,1.7c-0.3,0.5-0.5,1-0.8,1.4
				c-0.1,0.2-0.1,0.4-0.3,0.4c-0.3,0-0.3-0.2-0.4-0.4c-0.8-1.6-1.7-3.3-2.5-4.9c-0.3-0.6-0.8-1-1.5-1.1c-0.6-0.1-1.2-0.2-1.8-0.3
				c-0.3-0.1-0.5-0.2-0.5-0.6c0-0.7,0.1-1.4,0.2-2.1C176.3,120,175.9,118.8,175.7,117.5z"/>
		</g>
	</g>
	<g>
		<defs>
			
				<rect id="SVGID_1_" x="-36" y="98.1" transform="matrix(0.999 -4.551938e-02 4.551938e-02 0.999 -8.1902 6.718)" width="358.8" height="170.1"/>
		</defs>
		<clipPath id="SVGID_00000144301552869269594670000011914403495612143249_">
			<use xlink:href="#SVGID_1_"  style="overflow:visible;"/>
		</clipPath>
		
			<path style="clip-path:url(#SVGID_00000144301552869269594670000011914403495612143249_);fill:none;stroke:#0069B5;stroke-width:1.9708;stroke-miterlimit:6.385;" d="
			M62.3,190.9c-0.3-2.4-1.3-4.4-2.9-6.2c-1.6-1.8-3.7-3.4-6.2-4.7c-2.5-1.3-5-2.5-7.4-3.6c1.8-0.3,4-0.9,6.6-1.7
			c2.6-0.8,5.1-1.9,7.4-3.3c2.3-1.3,4.3-3,5.8-4.8c1.5-1.9,2.1-4,1.8-6.5c-0.2-1.8-1.2-3.3-2.8-4.6c-1.6-1.3-3.8-2.1-6.4-2.3
			c-2.4-0.2-5.2,0-8.5,0.5c-3.3,0.6-6.7,1.4-10.1,2.4c-3.4,1-6.7,2.2-9.8,3.6c-3.1,1.4-5.6,2.8-7.6,4.2c-1,0.7-2.2,1.6-3.4,2.7
			c-1.2,1.1-2.3,2.2-3.3,3.4c-1,1.2-1.8,2.5-2.5,3.7c-0.6,1.3-0.9,2.6-0.9,3.8c0,0.1,0.1,0.3,0.2,0.6c0.1,0.3,0.2,0.5,0.2,0.6
			c0,1.2,0.3,2.3,0.9,3.1c0.7,0.9,1.4,1.6,2.4,2.1c0.9,0.5,1.9,0.9,2.9,1.1c1,0.2,1.8,0.3,2.5,0.3c0.6,0,1-0.1,1.1-0.4
			c0.1-0.3-0.1-0.5-0.8-0.8c-0.5-0.1-1.1-0.3-1.8-0.4c-0.7-0.1-1.4-0.4-2.1-0.7c-0.7-0.3-1.3-0.7-1.9-1.3c-0.5-0.6-0.8-1.3-0.8-2.3
			c0-2.2,0.8-4.3,2.4-6.3c1.6-2,3.8-3.9,6.4-5.7c2.6-1.8,5.6-3.4,8.9-4.8c3.3-1.4,6.6-2.7,9.8-3.7c3.2-1,6.3-1.8,9.2-2.3
			c2.9-0.5,5.2-0.7,6.9-0.6c1.7,0.1,3,0.4,4,0.9c1,0.5,1.6,1.1,2,1.8c0.4,0.7,0.5,1.5,0.3,2.4c-0.2,0.9-0.5,1.8-1,2.6
			c-0.6,1.2-1.8,2.4-3.3,3.6c-1.6,1.2-3.3,2.4-5.1,3.4c-1.8,1-3.7,1.9-5.5,2.7c-1.8,0.7-3.3,1.2-4.6,1.4c-0.3,0-0.7,0.2-1.1,0.3
			c-0.4,0.2-0.7,0.4-1.1,0.7c-0.3,0.3-0.6,0.6-0.8,1c-0.2,0.3-0.2,0.7-0.1,1.1c0.1,0.5,0.6,1.1,1.3,1.7c0.8,0.6,1.6,1.3,2.6,2
			c1,0.7,2.1,1.4,3.3,2.2c1.2,0.7,2.2,1.6,3.2,2.4c2.6,2.2,4.2,4.4,4.7,6.6c0.6,2.2,0.5,4.2-0.4,6c-0.9,1.8-2.3,3.4-4.4,4.7
			c-2.1,1.3-4.6,2.1-7.4,2.5c-2.4,0.3-4.3,0-5.7-0.9c-1.5-0.9-2.5-2.1-3-3.7c-0.2-0.6-0.5-1.4-0.7-2.2c-0.2-0.8-0.9-1.1-1.9-1
			c-0.3,0-0.7,0.3-1.2,0.9c-0.5,0.6-0.9,1.3-1.4,2.1c-0.4,0.6-0.8,1.1-1.3,1.4c-0.5,0.4-0.9,0.5-1.2,0.4c-0.3-0.1-0.6-0.4-0.7-1
			c-0.1-0.6,0-1.4,0.3-2.6c0.4-1.3,0.9-3,1.6-5.1c0.7-2.2,1.5-4.5,2.5-7c1-2.5,2-5,3.2-7.5c1.1-2.5,2.3-4.8,3.5-6.9
			c1.2-2.1,2.5-3.8,3.8-5.2c1.3-1.4,2.5-2.1,3.7-2.3c0.2,0,0.5,0,0.8,0.1c0.3,0.1,0.3-0.1,0-0.8c-0.2-0.4-0.5-0.8-0.9-1.1
			c-0.4-0.3-0.9-0.5-1.4-0.7c-0.5-0.2-1-0.3-1.4-0.3c-0.4,0-0.8,0-1,0c-1.1,0.1-2.1,0.7-3.2,1.5c-1.1,0.9-2,1.9-2.9,3
			c-0.8,1.2-1.5,2.3-2.1,3.4c-0.5,1.1-0.8,2.1-0.8,2.7c0.1,0.3,0.2,0.6,0.3,1.1c0.1,0.5-0.1,1.2-0.4,2.3c-0.3,0.8-0.7,2-1.3,3.5
			c-0.6,1.5-1.2,3.2-1.9,5.1c-0.7,1.9-1.4,3.9-2.1,6c-0.7,2.1-1.4,4-1.9,5.9c-0.6,1.9-1,3.6-1.2,5.1c-0.3,1.5-0.3,2.7,0,3.6
			c0,0.1,0.2,0.2,0.5,0.3c0.3,0.1,0.7,0.2,1,0.2c0.4,0.1,0.7,0.1,1,0.1c0.3,0,0.5,0,0.6,0c0.5-0.1,0.9-0.3,1.3-0.7
			c0.4-0.4,0.8-0.9,1.2-1.4c0.4-0.6,0.8-1.1,1.1-1.7c0.3-0.6,0.6-1.2,0.9-1.7L33,202c0.7,2.4,2.1,4,4.2,4.9c2.2,0.9,4.7,1.1,7.8,0.7
			c3.2-0.4,6.1-1.4,8.8-3c2.6-1.6,4.6-3.4,5.9-5.5C61.8,196,62.6,193.3,62.3,190.9z"/>
		
			<path style="clip-path:url(#SVGID_00000144301552869269594670000011914403495612143249_);fill:none;stroke:#0069B5;stroke-width:1.9708;stroke-miterlimit:6.385;" d="
			M95,183.1c-0.3-0.1-0.6,0.1-0.8,0.4c-1.2,2.2-2.9,4.4-5,6.8c-2.1,2.4-4.5,4.3-7.3,5.9c-1.2,0.7-2.5,1.2-3.8,1.6
			c-1.3,0.4-2.4,0.5-3.4,0.3c-1-0.2-1.8-0.7-2.4-1.5c-0.5-0.8-0.7-2.1-0.4-3.8c0.3-1.5,0.8-3.1,1.6-4.7c0.8-1.6,1.7-3.2,2.8-4.6
			c1.1-1.5,2.2-2.8,3.4-4.1c1.2-1.2,2.4-2.2,3.5-2.9c0.2-0.2,0.6-0.4,1-0.6c0.4-0.2,0.9-0.4,1.3-0.5c0.4-0.1,0.8-0.1,1.2,0
			c0.4,0.1,0.6,0.4,0.6,1c0.1,0.5,0,1-0.2,1.5c-0.2,0.5-0.4,1-0.7,1.5c-0.3,0.5-0.6,1-1,1.4c-0.4,0.5-0.7,0.8-1,1.1
			c-1.4,1.4-2.9,2.7-4.7,4c-1.8,1.3-3.3,2.1-4.5,2.4c-0.6,0.1-0.8,0.4-0.6,0.7c0.2,0.3,0.6,0.4,1.2,0.3c0.8-0.2,1.9-0.6,3.2-1.1
			c1.3-0.6,2.5-1.3,3.7-2.1c1.2-0.8,2.4-1.8,3.5-2.8c1.1-1,1.9-2.1,2.5-3.3c0.3-0.6,0.5-1.2,0.6-2c0.1-0.7,0.1-1.5,0-2.2
			c-0.1-0.7-0.4-1.3-0.9-1.9c-0.5-0.5-1.1-0.9-1.9-1c-1.6-0.3-3.3,0.2-5.3,1.3c-2,1.1-3.9,2.6-5.7,4.4c-1.9,1.8-3.5,3.7-4.9,5.7
			c-1.4,2-2.3,3.7-2.7,5.1c-0.8,2.6-0.8,4.8,0,6.3c0.8,1.6,2,2.7,3.6,3.3c1.6,0.6,3.5,0.8,5.6,0.5c2.1-0.3,4.1-0.9,6-2
			c2.6-1.5,4.9-3.4,7-5.8c2.1-2.3,3.8-4.9,5.2-7.7C95.5,183.5,95.4,183.2,95,183.1z"/>
		
			<path style="clip-path:url(#SVGID_00000144301552869269594670000011914403495612143249_);fill:none;stroke:#0069B5;stroke-width:1.9708;stroke-miterlimit:6.385;" d="
			M103.4,193c1.5-1.4,2.8-2.9,4.1-4.5c1.2-1.6,2.3-3.1,3.2-4.5c0.9-1.4,1.5-2.2,1.8-2.3c-0.2,0.8-0.3,1.6-0.4,2.5
			c-0.1,0.9-0.2,1.8-0.2,2.7c0,0.9,0,1.8,0.1,2.5c0.1,0.8,0.2,1.4,0.5,1.9c0.6,1.1,1.3,1.9,2.2,2.2c0.9,0.3,1.9,0.4,2.8,0.2
			c1-0.2,1.9-0.6,2.8-1.1c0.9-0.5,1.6-1.1,2.2-1.6c0.9-0.9,1.8-1.8,2.7-2.9c0.9-1.1,1.8-2.1,2.6-3.3c0.8-1.1,1.5-2.2,2.2-3.3
			c0.6-1.1,1.1-2,1.4-2.7c0.2-0.4,0-0.6-0.3-0.8c-0.4-0.2-0.6-0.1-0.8,0.3c-0.6,1.2-1.4,2.5-2.4,3.8c-0.9,1.3-1.9,2.5-2.9,3.7
			c-1,1.2-1.9,2.2-2.8,3.1c-0.9,0.9-1.6,1.5-2.2,2c-1.2,0.9-2.2,1-3,0.3c-0.8-0.7-1.2-1.9-1.1-3.7c0-1.3,0.2-3.1,0.7-5.4
			c0.5-2.2,1.3-4.5,2.5-6.7c0.2-0.4,0.1-0.6-0.2-0.8c-0.3-0.2-0.6-0.4-1-0.5c-0.4-0.1-0.8-0.2-1.3-0.2c-0.4,0-0.8,0-1,0
			c-0.2,0-0.6,0.4-1.2,1.2c-0.6,0.8-1.3,1.7-2,2.7c-0.7,1-1.4,2-2.1,3c-0.7,1-1.1,1.6-1.4,1.9c-0.9,1.3-2,2.6-3.4,4.2
			c-1.3,1.5-2.5,2.8-3.4,3.8c-0.2,0.2-0.6,0.6-1.1,1.1c-0.5,0.5-1,0.9-1.6,1.3c-0.6,0.4-1.2,0.7-1.7,0.8c-0.5,0.2-1,0.1-1.3-0.3
			c-0.7-0.8-1-1.8-0.8-3.2c0.2-1.3,0.6-2.7,1.2-4.1c0.6-1.4,1.3-2.7,2.1-3.9c0.8-1.2,1.5-2.1,2-2.7c1.8-2.1,3.8-4,6.2-5.7
			c2.3-1.7,4.5-2.7,6.6-2.9c0.7-0.1,1.5-0.1,2.2,0c0.7,0.1,1.4,0.4,1.9,1c0.4,0.2,0.5,0,0.4-0.5c-0.1-0.8-0.7-1.4-1.7-1.9
			c-1.1-0.6-2.5-0.8-4-0.6c-1.5,0.2-2.8,0.5-4,1c-1,0.4-2.1,1.1-3.6,2c-1.4,1-2.9,2.1-4.4,3.5c-1.5,1.4-2.9,2.8-4.3,4.4
			c-1.4,1.6-2.5,3.1-3.3,4.8c-0.8,1.6-1.2,3.1-1.3,4.6c-0.1,1.4,0.5,2.7,1.6,3.8c0.7,0.7,1.6,1.2,2.6,1.6c1,0.4,2,0.5,2.8,0.4
			C100.4,195.2,101.9,194.4,103.4,193z"/>
		
			<path style="clip-path:url(#SVGID_00000144301552869269594670000011914403495612143249_);fill:none;stroke:#0069B5;stroke-width:1.9708;stroke-miterlimit:6.385;" d="
			M166.1,173.4c-0.4-0.2-0.6-0.1-0.8,0.3c-0.6,1.2-1.4,2.5-2.4,3.8c-0.9,1.3-1.9,2.5-2.9,3.7c-1,1.2-1.9,2.2-2.8,3.1
			c-0.9,0.9-1.6,1.5-2.2,2c-1.2,0.9-2.2,1-3,0.3c-0.8-0.7-1.2-1.9-1.1-3.7c0-2.8,0.5-5.5,1.4-8.1c0.2-0.6,0.5-1.3,0.8-2.2
			c0.3-0.9,0.7-1.8,1.1-2.7c0.4-0.9,0.7-1.7,1.1-2.6c0.3-0.8,0.6-1.4,0.8-1.9c0.2-0.4,0.1-0.6-0.3-0.9c-0.3-0.2-0.8-0.4-1.3-0.5
			c-0.5-0.1-1.1-0.2-1.6-0.2c-0.6,0-1,0-1.3,0c-0.2,0.4-0.5,1.1-0.8,1.9c-0.3,0.8-0.7,1.7-1.1,2.6c-0.4,0.9-0.7,1.8-1.1,2.7
			c-0.4,0.9-0.7,1.6-1,2.2c-1.2,2.3-2.4,4.6-3.7,6.9c-1.3,2.3-2.6,4.1-3.9,5.5c-1.2,1.3-2.4,2.2-3.4,2.7c-1,0.5-1.9,0.6-2.6,0.3
			c-0.7-0.3-1.2-0.9-1.4-1.9c-0.2-1-0.1-2.4,0.2-4.2c0.3-1.4,0.7-2.7,1.3-4c0.6-1.3,1.1-2.4,1.7-3.5c0.6-1,1.2-2,1.8-2.7
			c0.6-0.8,1.1-1.4,1.5-1.9c0.2-0.2,0.4-0.5,0.5-0.9c0.1-0.3-0.1-0.6-0.6-0.7c-0.6-0.1-1.2-0.1-2,0c-0.8,0.1-1.5,0.3-2.2,0.6
			c-0.2,0.1-0.4,0.3-0.7,0.7c-0.3,0.4-0.5,0.8-0.8,1.4c-0.3,0.5-0.6,1.1-0.9,1.7c-0.3,0.6-0.5,1.1-0.7,1.6c-0.6,1.2-1.1,2.5-1.5,3.8
			c-0.4,1.3-0.6,2.5-0.8,3.8c-0.1,1.2-0.1,2.4,0.1,3.4c0.2,1.1,0.5,2,1.1,2.6c0.6,0.8,1.6,1.3,2.8,1.6c1.2,0.3,2.3,0.4,3.1,0.3
			c1.6-0.2,3-1,4.2-2.4c1.3-1.4,2.3-2.9,3.2-4.5c0.9-1.6,1.6-3.1,2.2-4.6c0.5-1.4,1-2.2,1.3-2.5c-0.2,0.8-0.3,1.6-0.5,2.6
			c-0.1,1-0.2,1.9-0.2,2.9c0,1,0,1.9,0.1,2.8c0.1,0.9,0.3,1.5,0.5,2c0.6,1.1,1.3,1.9,2.2,2.2c0.9,0.3,1.9,0.4,2.8,0.2
			c1-0.2,1.9-0.6,2.8-1.1c0.9-0.5,1.6-1.1,2.2-1.6c0.9-0.9,1.8-1.8,2.7-2.9c0.9-1.1,1.8-2.2,2.6-3.4c0.8-1.1,1.5-2.2,2.1-3.2
			c0.6-1,1-1.9,1.3-2.7C166.6,173.9,166.5,173.6,166.1,173.4z"/>
		
			<path style="clip-path:url(#SVGID_00000144301552869269594670000011914403495612143249_);fill:none;stroke:#0069B5;stroke-width:1.9708;stroke-miterlimit:6.385;" d="
			M179.1,160.9c-1.1,0.3-2.2,0.6-3.4,0.9l-1,0.2c0.5-1.2,1-2.4,1.5-3.6c0.5-1.2,0.9-2.4,1.4-3.5c0.2-0.6,0.4-0.9,0.8-1.1
			c0.3-0.1,0.5-0.4,0.7-0.8c0.2-0.4,0.4-0.9,0.6-1.6c0.2-0.7,0.1-1.3-0.3-1.8c-0.3-0.3-0.8-0.5-1.4-0.5c-0.6,0-1.3,0-1.8,0.1
			c-0.5,0.2-0.9,0.6-1.2,1.2c-0.3,0.6-0.8,1.8-1.5,3.6c0,0.1-0.1,0.3-0.3,0.8c-0.2,0.5-0.4,1.1-0.7,1.9c-0.3,0.7-0.6,1.6-0.9,2.5
			c-0.3,0.9-0.7,1.8-1,2.7c-0.1,0-0.2,0.1-0.3,0.1c-0.7,0.2-1.5,0.4-2.3,0.6c-0.8,0.2-1.4,0.7-1.6,1.5c-0.2,0.6-0.1,1,0.2,1.2
			c0.3,0.3,0.7,0.4,1.1,0.3c0.2,0,0.4-0.1,0.7-0.1c0.3,0,0.6-0.1,1-0.2c-0.4,1-0.7,1.8-0.9,2.4c-0.2,0.6-0.3,1-0.3,1
			c-0.5,1-1.1,2.3-2,3.8c-0.9,1.6-1.9,3.3-3,5.2c-0.3,0.5-0.2,0.9,0.1,1.2c0.3,0.3,0.6,0.2,1-0.3c0.7-1,1.3-1.9,1.6-2.6
			c0.3-0.7,0.6-1.3,0.9-1.8c-0.6,2-1.1,3.9-1.3,5.8c-0.3,1.9-0.2,3.3,0.3,4.2c0.6,1.1,1.3,1.9,2.2,2.2c0.9,0.3,1.9,0.4,2.8,0.2
			c1-0.2,1.9-0.6,2.8-1.1c0.9-0.5,1.6-1.1,2.2-1.6c0.9-0.9,1.8-1.8,2.7-2.9c0.9-1.1,1.8-2.2,2.6-3.4c0.8-1.1,1.5-2.2,2.1-3.2
			c0.6-1,1-1.9,1.3-2.7c0.2-0.4,0.1-0.6-0.3-0.8c-0.4-0.2-0.6-0.1-0.8,0.3c-0.6,1.2-1.4,2.5-2.4,3.8c-0.9,1.3-1.9,2.5-2.9,3.7
			c-1,1.2-1.9,2.2-2.8,3.1c-0.9,0.9-1.6,1.5-2.2,2c-1.2,0.9-2.2,1-3,0.3c-0.8-0.7-1.2-1.9-1.1-3.7c0-1.3,0.3-3,0.9-5.1
			c0.7-2.1,1.4-4.4,2.3-6.9c0.1-0.3,0.3-0.9,0.6-1.6c0.3-0.7,0.7-1.6,1.1-2.6c1.8-0.4,3.6-0.9,5.3-1.4c1.7-0.5,2.8-0.9,3.4-1.2
			c0.8-0.3,1.4-0.6,1.6-0.8c0.2-0.2,0.3-0.3,0.2-0.4c-0.1-0.1-0.3-0.1-0.5-0.2c-0.3,0-0.5,0-0.8,0
			C181.4,160.4,180.1,160.6,179.1,160.9z"/>
		
			<path style="clip-path:url(#SVGID_00000144301552869269594670000011914403495612143249_);fill:none;stroke:#0069B5;stroke-width:1.9708;stroke-miterlimit:6.385;" d="
			M183.8,170.2c-0.9,1.6-1.9,3.3-3,5.2c-0.3,0.5-0.2,0.9,0.1,1.2c0.3,0.3,0.6,0.2,1-0.3c0.7-1,1.3-1.9,1.6-2.6
			c0.3-0.7,0.6-1.3,0.9-1.8c-0.6,2-1.1,3.9-1.3,5.8c-0.3,1.9-0.2,3.3,0.3,4.2c0.6,1.1,1.3,1.9,2.2,2.2c0.9,0.3,1.9,0.4,2.8,0.2
			c1-0.2,1.9-0.6,2.8-1.1c0.9-0.5,1.6-1.1,2.2-1.6c0.9-0.9,1.8-1.8,2.7-2.9c0.9-1.1,1.8-2.2,2.6-3.4c0.8-1.1,1.5-2.2,2.1-3.2
			c0.6-1,1-1.9,1.3-2.7c0.2-0.4,0.1-0.6-0.3-0.8c-0.4-0.2-0.6-0.1-0.8,0.3c-0.6,1.2-1.4,2.5-2.4,3.8c-0.9,1.3-1.9,2.5-2.9,3.7
			c-1,1.2-1.9,2.2-2.8,3.1c-0.9,0.9-1.6,1.5-2.2,2c-1.2,0.9-2.2,1-3,0.3c-0.8-0.7-1.2-1.9-1.1-3.7c0-1.3,0.3-3,0.9-5.1
			c0.7-2.1,1.4-4.4,2.3-6.9c0.4-1.3,0.8-2.4,1-3.2c0.3-0.8,0.2-1.5-0.1-1.9c-0.2-0.4-0.7-0.6-1.2-0.6c-0.6-0.1-1.1,0-1.6,0.1
			c-0.5,0.2-0.9,0.8-1.2,1.7c-0.3,0.9-0.6,2-0.9,3.3c-0.1,0.5-0.1,0.8,0,1C185.3,167.4,184.6,168.7,183.8,170.2z M195,149.4
			c0.1-0.5,0.2-0.9,0.2-1.2c0-0.3-0.1-0.4-0.3-0.4c-0.3,0.1-0.7,0.5-1.4,1.2c-0.1,0.2-0.4,0.4-0.8,0.9c-0.4,0.4-0.9,0.9-1.4,1.4
			c-0.5,0.5-1,1-1.4,1.5c-0.4,0.5-0.6,0.7-0.6,0.8c0.1,0.9,0.6,1.3,1.3,1.3c0.8,0,1.5,0,2.2-0.1c0.2,0,0.4-0.2,0.7-0.6
			c0.3-0.4,0.5-0.8,0.7-1.3c0.2-0.5,0.4-0.9,0.6-1.4c0.1-0.5,0.2-0.8,0.2-1C194.9,150.3,194.9,149.9,195,149.4z"/>
		
			<path style="clip-path:url(#SVGID_00000144301552869269594670000011914403495612143249_);fill:none;stroke:#0069B5;stroke-width:1.9708;stroke-miterlimit:6.385;" d="
			M209.8,166.1c0-0.2,0.1-0.4,0.1-0.5c0-0.2,0.2-0.7,0.4-1.6c0.3-0.9,0.6-2,1-3.3c0.4-1.4,0.9-2.9,1.4-4.6c0.5-1.7,1.2-3.4,1.9-5.2
			c0.5-1.5,1.2-3.1,2-4.7c0.8-1.7,1.6-3.3,2.4-4.8c0.8-1.5,1.7-3,2.5-4.2c0.8-1.3,1.6-2.3,2.3-3c1.1-1.1,2-1.7,2.7-1.8
			c0.7-0.1,1.2,0.1,1.5,0.7c0.3,0.6,0.4,1.4,0.4,2.4c-0.1,1-0.3,2.1-0.8,3.2c-0.8,2-1.9,4.2-3.2,6.7c-1.3,2.5-2.8,5.1-4.4,7.7
			c-1.6,2.6-3.3,5.1-5.1,7.6c-1.8,2.4-3.6,4.5-5.3,6.2C209.7,166.6,209.8,166.3,209.8,166.1z M207.3,163.9c-0.3,1-0.6,2.3-1,3.8
			l-0.2,0c-0.3,0-0.7-0.1-1-0.5c-0.3-0.4-0.8-0.5-1.5-0.5c-0.3,0-0.8,0.2-1.3,0.3c-0.5,0.2-1,0.4-1.5,0.6s-0.9,0.6-1.2,0.9
			c-0.4,0.3-0.5,0.7-0.5,1c0.1,0.5,0.4,0.9,0.9,1.2c0.5,0.3,1,0.4,1.5,0.3c0.3,0,0.8-0.1,1.6-0.3c0.7-0.2,1.6-0.4,2.5-0.6
			c-0.6,2.2-1.2,4.7-1.8,7.3c-0.6,2.7-1.3,5.4-2,8.1c-0.7,2.7-1.4,5.4-2,8.1c-0.7,2.6-1.3,5-1.8,7.1c-0.6,2.1-1,3.9-1.4,5.3
			c-0.4,1.4-0.6,2.3-0.7,2.6c-0.2,0.6-0.2,1,0.2,1c0.4,0.1,0.8,0,1.4-0.2c0.6-0.2,1.2-0.5,1.7-0.8c0.6-0.3,1-0.6,1.3-0.9
			c0.5-0.4,0.9-1.1,1.1-2c0.2-0.9,0.6-2.7,1.2-5.2c0.1-0.6,0.2-1,0.1-1.2c0-0.3-0.1-0.6-0.1-1.1c0-0.5,0-1.1,0-2
			c0.1-0.8,0.3-2.2,0.6-3.9c0.4-1.7,0.8-3.5,1.2-5.5c0.4-2,0.9-4,1.4-6.1c0.5-2.1,1-4.1,1.4-6.1c0.4-2,0.9-3.7,1.3-5.2
			c1.2-0.3,2.4-0.6,3.6-0.9c1.2-0.3,2.4-0.7,3.4-1c1.1-0.3,2-0.6,2.8-0.8c0.8-0.2,1.4-0.4,1.7-0.6c0.8-0.4,1.3-0.7,1.5-0.9
			c0.2-0.2,0.2-0.3,0.1-0.4c-0.1-0.1-0.4-0.1-0.8-0.1c-0.4,0-0.7,0-1,0c-1.4,0.2-2.8,0.4-4.2,0.8c-1.4,0.3-2.8,0.6-4.1,1
			c1.8-1.8,3.6-4,5.5-6.4c1.9-2.4,3.7-4.9,5.4-7.4c1.7-2.5,3.2-4.9,4.5-7.2c1.3-2.3,2.2-4.3,2.7-6c0.6-2,0.8-3.7,0.6-5.2
			c-0.2-1.5-1.2-2.6-2.9-3.3c-0.2-0.1-0.5-0.2-0.7-0.2c-0.3,0-0.6-0.1-0.9-0.2c-1.4-0.2-2.6,0-3.8,0.5c-1.2,0.6-2.2,1.3-3.2,2.2
			c-0.9,0.9-1.8,2-2.5,3.2c-0.7,1.2-1.4,2.4-1.9,3.5c-0.7,1.5-1.4,3.2-2.1,5.2c-0.7,2-1.4,4-2,6.1c-0.6,2.1-1.2,4-1.7,5.8
			c-0.5,1.8-0.9,3.3-1.1,4.5C207.7,162.1,207.6,162.9,207.3,163.9z"/>
		
			<path style="clip-path:url(#SVGID_00000144301552869269594670000011914403495612143249_);fill:none;stroke:#0069B5;stroke-width:1.9708;stroke-miterlimit:6.385;" d="
			M259.5,161c-0.4-0.2-0.6-0.1-0.8,0.3c-0.6,1.2-1.4,2.5-2.4,3.8c-0.9,1.3-1.9,2.5-2.9,3.7c-1,1.2-1.9,2.2-2.8,3.1
			c-0.9,0.9-1.6,1.5-2.2,2c-1.2,0.9-2.2,1-3,0.3c-0.8-0.7-1.2-1.9-1.1-3.7c0-2.8,0.5-5.5,1.4-8.1c0.2-0.6,0.5-1.3,0.8-2.2
			c0.3-0.9,0.7-1.8,1.1-2.7c0.4-0.9,0.7-1.7,1.1-2.6c0.3-0.8,0.6-1.4,0.8-1.9c0.2-0.4,0.1-0.6-0.3-0.9c-0.3-0.2-0.8-0.4-1.3-0.5
			c-0.5-0.1-1.1-0.2-1.6-0.2c-0.6,0-1,0-1.3,0c-0.2,0.4-0.5,1.1-0.8,1.9c-0.3,0.8-0.7,1.7-1.1,2.6c-0.4,0.9-0.7,1.8-1.1,2.7
			c-0.4,0.9-0.7,1.6-1,2.2c-1.2,2.3-2.4,4.6-3.7,6.9c-1.3,2.3-2.6,4.1-3.9,5.5c-1.2,1.3-2.4,2.2-3.4,2.7c-1,0.5-1.9,0.6-2.6,0.3
			c-0.7-0.3-1.2-0.9-1.4-1.9c-0.2-1-0.1-2.4,0.2-4.2c0.3-1.4,0.7-2.7,1.3-4c0.6-1.3,1.1-2.4,1.7-3.5c0.6-1,1.2-2,1.8-2.7
			c0.6-0.8,1.1-1.4,1.5-1.9c0.2-0.2,0.4-0.5,0.5-0.9c0.1-0.3-0.1-0.6-0.6-0.7c-0.6-0.1-1.2-0.1-2,0c-0.8,0.1-1.5,0.3-2.2,0.6
			c-0.2,0.1-0.4,0.3-0.7,0.7c-0.3,0.4-0.5,0.8-0.8,1.4c-0.3,0.5-0.6,1.1-0.9,1.7c-0.3,0.6-0.5,1.1-0.7,1.6c-0.6,1.2-1.1,2.5-1.5,3.8
			c-0.4,1.3-0.6,2.5-0.8,3.8c-0.1,1.2-0.1,2.4,0.1,3.4c0.2,1.1,0.5,2,1.1,2.6c0.6,0.8,1.6,1.3,2.8,1.6c1.2,0.3,2.3,0.4,3.1,0.3
			c1.6-0.2,3-1,4.2-2.4c1.3-1.4,2.3-2.9,3.2-4.5c0.9-1.6,1.6-3.1,2.2-4.6c0.5-1.4,1-2.2,1.3-2.5c-0.2,0.8-0.3,1.6-0.5,2.6
			c-0.1,1-0.2,1.9-0.2,2.9c0,1,0,1.9,0.1,2.8c0.1,0.9,0.3,1.5,0.5,2c0.6,1.1,1.3,1.9,2.2,2.2c0.9,0.3,1.9,0.4,2.8,0.2
			c1-0.2,1.9-0.6,2.8-1.1c0.9-0.5,1.6-1.1,2.2-1.6c0.9-0.9,1.8-1.8,2.7-2.9c0.9-1.1,1.8-2.2,2.6-3.4c0.8-1.1,1.5-2.2,2.1-3.2
			c0.6-1,1-1.9,1.3-2.7C260,161.4,259.9,161.1,259.5,161z"/>
		
			<path style="clip-path:url(#SVGID_00000144301552869269594670000011914403495612143249_);fill:none;stroke:#0069B5;stroke-width:1.9708;stroke-miterlimit:6.385;" d="
			M266.1,147.7c0.7-1.9,1.2-3.3,1.5-4.1c1.3-3.3,2.8-6.4,4.4-9.4c1.6-2.9,3.6-5.5,5.7-7.7c1.5-1.5,2.7-2,3.5-1.4c0.8,0.6,0.8,2,0,4
			c-0.8,2.2-1.9,4.7-3.3,7.5c-1.4,2.8-2.9,5.6-4.6,8.4c-1.7,2.8-3.5,5.5-5.4,8c-1.9,2.5-3.7,4.6-5.5,6.2c0.2-1,0.4-1.9,0.7-2.8
			c0.2-0.9,0.5-1.9,0.9-2.9C264.8,151.5,265.5,149.6,266.1,147.7z M274.1,147.4c3.8-5.3,7-10.9,9.5-17c0.6-1.3,0.8-2.5,0.7-3.5
			c-0.1-1-0.3-1.8-0.8-2.5c-0.5-0.6-1.1-1.1-1.8-1.3c-0.8-0.2-1.6-0.3-2.4-0.2c-1.4,0.2-2.6,0.6-3.6,1.3c-1,0.7-2,1.5-2.9,2.5
			c-0.9,1-1.7,2-2.3,3.1c-0.7,1.1-1.3,2.2-1.9,3.3c-0.7,1.2-1.5,2.8-2.3,4.7c-0.8,1.9-1.7,3.9-2.5,6.1c-0.8,2.2-1.6,4.5-2.4,6.8
			c-0.8,2.4-1.4,4.7-2,6.9c-0.6,2.2-1,4.3-1.3,6.2c-0.3,1.9-0.4,3.5-0.3,4.9c0.1,1.9,0.7,3.3,1.7,4.4c1,1.1,2.8,1.4,5.1,1.1
			c0.7-0.1,1.5-0.4,2.4-0.8c0.8-0.4,1.6-1,2.3-1.7c0.9-0.9,1.8-1.8,2.7-2.9c0.9-1.1,1.8-2.2,2.7-3.4c0.9-1.2,1.6-2.2,2.2-3.3
			c0.6-1,1.1-1.9,1.4-2.7c0.2-0.5,0.1-0.8-0.2-1c-0.4-0.2-0.6-0.1-0.8,0.3c-0.5,1-1.2,2.1-2.1,3.3c-0.9,1.2-1.8,2.4-2.7,3.6
			c-0.9,1.2-1.9,2.2-2.8,3.2c-0.9,1-1.7,1.7-2.5,2.2c-1.1,0.8-2,1.2-2.8,1.2c-0.7,0-1.3-0.3-1.8-0.9c-0.5-0.6-0.8-1.3-1-2.2
			c-0.2-0.9-0.3-1.9-0.3-2.9c0-0.4,0.1-0.9,0.1-1.6c0.1-0.6,0.2-1.4,0.4-2.2C266.2,157.7,270.3,152.6,274.1,147.4z"/>
	</g>
	<g>
		<path class="st4" d="M59.7,199.1c-1.3,2.1-3.3,4-5.9,5.5c-2.6,1.6-5.6,2.6-8.8,3c-3,0.4-5.6,0.2-7.8-0.7c-2.2-0.9-3.6-2.5-4.2-4.9
			l-0.1-0.5c-0.3,0.5-0.6,1.1-0.9,1.7c-0.3,0.6-0.7,1.2-1.1,1.7c-0.4,0.6-0.8,1-1.2,1.4c-0.4,0.4-0.9,0.6-1.3,0.7
			c-0.1,0-0.3,0-0.6,0c-0.3,0-0.6,0-1-0.1c-0.4,0-0.7-0.1-1-0.2c-0.3-0.1-0.5-0.2-0.5-0.3c-0.2-0.8-0.2-2,0-3.6
			c0.3-1.5,0.7-3.2,1.2-5.1c0.6-1.9,1.2-3.9,1.9-5.9c0.7-2.1,1.4-4.1,2.1-6c0.7-1.9,1.3-3.6,1.9-5.1c0.6-1.5,1-2.7,1.3-3.5
			c0.4-1.1,0.5-1.8,0.5-2.3c-0.1-0.5-0.2-0.8-0.3-1.1c0-0.7,0.2-1.6,0.8-2.7c0.5-1.1,1.2-2.3,2.1-3.4c0.9-1.2,1.8-2.2,2.9-3
			c1.1-0.9,2.1-1.4,3.2-1.5c0.2,0,0.5,0,1,0c0.4,0,0.9,0.1,1.4,0.3s1,0.4,1.4,0.7c0.4,0.3,0.8,0.6,0.9,1.1c0.3,0.6,0.3,0.9,0,0.8
			c-0.3-0.1-0.6-0.2-0.8-0.1c-1.2,0.2-2.4,0.9-3.7,2.3c-1.3,1.4-2.5,3.1-3.8,5.2c-1.2,2.1-2.4,4.4-3.5,6.9c-1.1,2.5-2.2,5-3.2,7.5
			c-1,2.5-1.8,4.8-2.5,7c-0.7,2.2-1.2,3.9-1.6,5.1c-0.3,1.2-0.4,2-0.3,2.6c0.1,0.6,0.3,0.9,0.7,1c0.3,0.1,0.7,0,1.2-0.4
			c0.5-0.4,0.9-0.8,1.3-1.4c0.5-0.8,1-1.5,1.4-2.1c0.5-0.6,0.8-0.9,1.2-0.9c1.1-0.1,1.7,0.2,1.9,1c0.2,0.8,0.5,1.5,0.7,2.2
			c0.5,1.5,1.5,2.8,3,3.7c1.5,0.9,3.4,1.2,5.7,0.9c2.8-0.4,5.3-1.2,7.4-2.5c2.1-1.3,3.6-2.8,4.4-4.7s1-3.8,0.4-6
			c-0.6-2.2-2.2-4.4-4.7-6.6c-1-0.9-2.1-1.7-3.2-2.4c-1.2-0.7-2.3-1.5-3.3-2.2c-1-0.7-1.9-1.4-2.6-2c-0.8-0.6-1.2-1.2-1.3-1.7
			c-0.1-0.4-0.1-0.7,0.1-1.1c0.2-0.3,0.4-0.6,0.8-1c0.3-0.3,0.7-0.6,1.1-0.7c0.4-0.2,0.7-0.3,1.1-0.3c1.2-0.2,2.8-0.6,4.6-1.4
			c1.8-0.7,3.6-1.6,5.5-2.7c1.8-1,3.5-2.2,5.1-3.4c1.6-1.2,2.7-2.4,3.3-3.6c0.5-0.9,0.8-1.8,1-2.6c0.2-0.9,0.1-1.7-0.3-2.4
			c-0.4-0.7-1-1.3-2-1.8s-2.3-0.8-4-0.9c-1.8-0.1-4.1,0.1-6.9,0.6c-2.9,0.5-5.9,1.3-9.2,2.3c-3.2,1-6.5,2.2-9.8,3.7
			c-3.3,1.4-6.3,3-8.9,4.8c-2.6,1.8-4.8,3.7-6.4,5.7c-1.6,2-2.4,4.1-2.4,6.3c0,1,0.3,1.8,0.8,2.3c0.5,0.6,1.2,1,1.9,1.3
			c0.7,0.3,1.4,0.5,2.1,0.7c0.7,0.1,1.3,0.3,1.8,0.4c0.6,0.3,0.9,0.5,0.8,0.8c-0.1,0.3-0.5,0.4-1.1,0.4c-0.7,0-1.5-0.1-2.5-0.3
			c-1-0.2-2-0.6-2.9-1.1c-0.9-0.5-1.7-1.2-2.4-2.1c-0.7-0.9-1-1.9-0.9-3.1c0-0.1-0.1-0.3-0.2-0.6c-0.1-0.3-0.2-0.5-0.2-0.6
			c0-1.3,0.3-2.5,0.9-3.8c0.6-1.3,1.5-2.5,2.5-3.7c1-1.2,2.1-2.3,3.3-3.4c1.2-1.1,2.3-2,3.4-2.7c2-1.4,4.5-2.8,7.6-4.2
			c3.1-1.4,6.3-2.6,9.8-3.6c3.4-1,6.8-1.8,10.1-2.4c3.3-0.6,6.1-0.8,8.5-0.5c2.6,0.2,4.8,1,6.4,2.3c1.6,1.3,2.6,2.8,2.8,4.6
			c0.3,2.4-0.3,4.6-1.8,6.5c-1.5,1.9-3.4,3.5-5.8,4.8c-2.3,1.3-4.8,2.4-7.4,3.3c-2.6,0.8-4.8,1.4-6.6,1.7c2.4,1.1,4.9,2.3,7.4,3.6
			c2.5,1.3,4.6,2.9,6.2,4.7c1.6,1.8,2.6,3.9,2.9,6.2C62.6,193.3,61.7,196,59.7,199.1z"/>
		<path class="st4" d="M95.1,184.1c-1.4,2.8-3.2,5.4-5.2,7.7c-2.1,2.3-4.4,4.3-7,5.8c-1.9,1.1-3.9,1.7-6,2c-2.1,0.3-4,0.1-5.6-0.5
			c-1.6-0.6-2.8-1.7-3.6-3.3c-0.8-1.6-0.8-3.7,0-6.3c0.4-1.4,1.3-3.1,2.7-5.1c1.4-2,3-3.9,4.9-5.7s3.8-3.2,5.7-4.4
			c2-1.1,3.7-1.6,5.3-1.3c0.8,0.2,1.5,0.5,1.9,1s0.8,1.2,0.9,1.9c0.1,0.7,0.1,1.5,0,2.2c-0.1,0.8-0.3,1.4-0.6,2
			c-0.6,1.1-1.4,2.2-2.5,3.3c-1.1,1.1-2.3,2-3.5,2.8c-1.2,0.8-2.5,1.5-3.7,2.1c-1.3,0.6-2.3,0.9-3.2,1.1c-0.6,0.1-1,0-1.2-0.3
			c-0.2-0.3,0-0.6,0.6-0.7c1.2-0.3,2.7-1.1,4.5-2.4c1.8-1.3,3.3-2.7,4.7-4c0.3-0.3,0.6-0.7,1-1.1c0.4-0.5,0.7-0.9,1-1.4
			c0.3-0.5,0.5-1,0.7-1.5c0.2-0.5,0.2-1,0.2-1.5c-0.1-0.5-0.3-0.8-0.6-1c-0.4-0.1-0.7-0.1-1.2,0c-0.4,0.1-0.9,0.2-1.3,0.5
			c-0.4,0.2-0.8,0.4-1,0.6c-1.1,0.7-2.3,1.6-3.5,2.9c-1.2,1.2-2.3,2.6-3.4,4.1s-2,3-2.8,4.6s-1.3,3.2-1.6,4.7
			c-0.3,1.7-0.2,3,0.4,3.8c0.5,0.8,1.3,1.3,2.4,1.5c1,0.2,2.2,0.1,3.4-0.3c1.3-0.4,2.5-0.9,3.7-1.6c2.8-1.6,5.2-3.5,7.3-5.9
			c2.1-2.4,3.8-4.6,5-6.8c0.2-0.4,0.5-0.5,0.8-0.4C95.4,183.2,95.5,183.5,95.1,184.1z"/>
		<path class="st4" d="M98.8,195.3c-0.9,0.1-1.8,0-2.8-0.4c-1-0.4-1.9-0.9-2.6-1.6c-1.2-1.1-1.7-2.4-1.6-3.8c0.1-1.4,0.5-3,1.3-4.6
			c0.8-1.6,1.9-3.2,3.3-4.8c1.4-1.6,2.8-3,4.3-4.4c1.5-1.4,3-2.5,4.4-3.5c1.4-1,2.6-1.6,3.6-2c1.1-0.5,2.5-0.8,4-1
			c1.5-0.2,2.8,0,4,0.6c1,0.5,1.6,1.1,1.7,1.9c0.1,0.5-0.1,0.6-0.4,0.5c-0.5-0.6-1.2-0.9-1.9-1c-0.7-0.1-1.5-0.1-2.2,0
			c-2.1,0.3-4.3,1.3-6.6,2.9c-2.3,1.7-4.4,3.6-6.2,5.7c-0.5,0.6-1.2,1.5-2,2.7c-0.8,1.2-1.5,2.5-2.1,3.9c-0.6,1.4-1,2.7-1.2,4.1
			c-0.2,1.3,0.1,2.4,0.8,3.2c0.3,0.4,0.7,0.5,1.3,0.3c0.5-0.2,1.1-0.5,1.7-0.8c0.6-0.4,1.1-0.8,1.6-1.3c0.5-0.5,0.9-0.9,1.1-1.1
			c0.9-1,2.1-2.2,3.4-3.8c1.3-1.5,2.5-2.9,3.4-4.2c0.2-0.3,0.7-0.9,1.4-1.9c0.7-1,1.4-2,2.1-3c0.7-1,1.4-1.9,2-2.7
			c0.6-0.8,1-1.2,1.2-1.2c0.2,0,0.5,0,1,0c0.4,0,0.9,0.1,1.3,0.2s0.8,0.3,1,0.5c0.3,0.2,0.3,0.5,0.2,0.8c-1.2,2.2-2,4.5-2.5,6.7
			c-0.5,2.2-0.7,4-0.7,5.4c0,1.7,0.3,3,1.1,3.7c0.8,0.7,1.8,0.6,3-0.3c0.6-0.4,1.4-1.1,2.2-2c0.9-0.9,1.8-1.9,2.8-3.1
			c1-1.2,1.9-2.4,2.9-3.7s1.7-2.6,2.4-3.8c0.2-0.4,0.4-0.4,0.8-0.3c0.4,0.2,0.5,0.5,0.3,0.8c-0.3,0.8-0.8,1.7-1.4,2.7
			c-0.6,1.1-1.4,2.1-2.2,3.2c-0.8,1.1-1.7,2.2-2.6,3.3c-0.9,1.1-1.8,2-2.7,2.9c-0.6,0.5-1.3,1.1-2.2,1.6c-0.9,0.5-1.8,0.9-2.8,1.1
			c-1,0.2-1.9,0.1-2.8-0.2c-0.9-0.3-1.6-1-2.2-2.2c-0.3-0.5-0.4-1.1-0.5-1.9c-0.1-0.8-0.1-1.6-0.1-2.5c0-0.9,0.1-1.8,0.2-2.7
			c0.1-0.9,0.2-1.8,0.4-2.5c-0.3,0.2-0.9,1-1.8,2.3c-0.9,1.4-1.9,2.9-3.2,4.5c-1.2,1.6-2.6,3.1-4.1,4.5
			C101.9,194.3,100.3,195.1,98.8,195.3z"/>
		<path class="st4" d="M166.4,174.2c-0.3,0.8-0.7,1.7-1.3,2.7c-0.6,1-1.3,2.1-2.1,3.2c-0.8,1.1-1.7,2.3-2.6,3.4
			c-0.9,1.1-1.8,2.1-2.7,2.9c-0.6,0.5-1.3,1.1-2.2,1.6c-0.9,0.5-1.8,0.9-2.8,1.1c-1,0.2-1.9,0.1-2.8-0.2c-0.9-0.3-1.6-1-2.2-2.2
			c-0.3-0.5-0.4-1.2-0.5-2c-0.1-0.9-0.1-1.8-0.1-2.8c0-1,0.1-2,0.2-2.9c0.1-1,0.3-1.8,0.5-2.6c-0.3,0.2-0.7,1.1-1.3,2.5
			c-0.5,1.4-1.3,2.9-2.2,4.6c-0.9,1.6-2,3.1-3.2,4.5c-1.3,1.4-2.7,2.2-4.2,2.4c-0.8,0.1-1.8,0-3.1-0.3c-1.2-0.3-2.2-0.8-2.8-1.6
			c-0.6-0.7-0.9-1.5-1.1-2.6c-0.2-1.1-0.2-2.2-0.1-3.4c0.1-1.2,0.4-2.5,0.8-3.8c0.4-1.3,0.9-2.5,1.5-3.8c0.2-0.4,0.5-0.9,0.7-1.6
			c0.3-0.6,0.6-1.2,0.9-1.7c0.3-0.5,0.6-1,0.8-1.4c0.3-0.4,0.5-0.6,0.7-0.7c0.7-0.3,1.4-0.5,2.2-0.6c0.8-0.1,1.5-0.1,2,0
			c0.6,0.1,0.8,0.4,0.6,0.7c-0.1,0.3-0.3,0.6-0.5,0.9c-0.4,0.5-0.9,1.1-1.5,1.9c-0.6,0.8-1.2,1.7-1.8,2.7c-0.6,1.1-1.2,2.2-1.7,3.5
			c-0.6,1.3-1,2.6-1.3,4c-0.4,1.8-0.4,3.2-0.2,4.2c0.2,1,0.7,1.7,1.4,1.9c0.7,0.3,1.6,0.2,2.6-0.3c1-0.5,2.2-1.4,3.4-2.7
			c1.3-1.4,2.6-3.2,3.9-5.5c1.3-2.3,2.6-4.6,3.7-6.9c0.3-0.6,0.7-1.3,1-2.2c0.3-0.9,0.7-1.8,1.1-2.7c0.4-0.9,0.7-1.8,1.1-2.6
			c0.3-0.8,0.6-1.4,0.8-1.9c0.3,0,0.7,0,1.3,0c0.6,0,1.1,0.1,1.6,0.2c0.5,0.1,0.9,0.3,1.3,0.5c0.3,0.2,0.4,0.5,0.3,0.9
			c-0.2,0.4-0.5,1.1-0.8,1.9c-0.3,0.8-0.7,1.7-1.1,2.6c-0.4,0.9-0.8,1.8-1.1,2.7c-0.3,0.9-0.6,1.6-0.8,2.2c-0.9,2.6-1.4,5.3-1.4,8.1
			c0,1.7,0.3,3,1.1,3.7c0.8,0.7,1.8,0.6,3-0.3c0.6-0.4,1.4-1.1,2.2-2c0.9-0.9,1.8-1.9,2.8-3.1c1-1.2,1.9-2.4,2.9-3.7
			s1.7-2.6,2.4-3.8c0.2-0.4,0.4-0.5,0.8-0.3C166.4,173.6,166.5,173.8,166.4,174.2z"/>
		<path class="st4" d="M182.9,160.2c0.3,0,0.5,0,0.8,0c0.3,0,0.4,0.1,0.5,0.2c0.1,0.1,0,0.2-0.2,0.4c-0.2,0.2-0.8,0.5-1.6,0.8
			c-0.6,0.3-1.7,0.7-3.4,1.2c-1.7,0.5-3.5,1-5.3,1.4c-0.4,1-0.8,1.9-1.1,2.6c-0.3,0.7-0.5,1.3-0.6,1.6c-0.9,2.5-1.6,4.8-2.3,6.9
			c-0.7,2.1-1,3.8-0.9,5.1c0,1.7,0.3,3,1.1,3.7s1.8,0.6,3-0.3c0.6-0.4,1.4-1.1,2.2-2c0.9-0.9,1.8-1.9,2.8-3.1c1-1.2,1.9-2.4,2.9-3.7
			c0.9-1.3,1.7-2.6,2.4-3.8c0.2-0.4,0.4-0.5,0.8-0.3c0.4,0.2,0.5,0.4,0.3,0.8c-0.3,0.8-0.7,1.7-1.3,2.7c-0.6,1-1.3,2.1-2.1,3.2
			c-0.8,1.1-1.7,2.3-2.6,3.4c-0.9,1.1-1.8,2.1-2.7,2.9c-0.6,0.5-1.3,1.1-2.2,1.6s-1.8,0.9-2.8,1.1c-1,0.2-1.9,0.1-2.8-0.2
			c-0.9-0.3-1.6-1-2.2-2.2c-0.5-0.9-0.5-2.3-0.3-4.2c0.3-1.9,0.7-3.8,1.3-5.8c-0.3,0.5-0.6,1.1-0.9,1.8c-0.3,0.7-0.9,1.5-1.6,2.6
			c-0.3,0.5-0.7,0.6-1,0.3c-0.3-0.3-0.3-0.7-0.1-1.2c1.2-1.9,2.2-3.6,3-5.2c0.9-1.6,1.5-2.8,2-3.8c0-0.1,0.1-0.4,0.3-1
			c0.2-0.6,0.5-1.4,0.9-2.4c-0.4,0.1-0.7,0.2-1,0.2s-0.5,0.1-0.7,0.1c-0.4,0.1-0.8,0-1.1-0.3c-0.3-0.3-0.4-0.7-0.2-1.2
			c0.2-0.8,0.8-1.3,1.6-1.5c0.8-0.2,1.6-0.4,2.3-0.6c0.1-0.1,0.2-0.1,0.3-0.1c0.3-0.9,0.7-1.8,1-2.7c0.3-0.9,0.7-1.7,0.9-2.5
			c0.3-0.7,0.5-1.4,0.7-1.8c0.2-0.5,0.3-0.8,0.3-0.8c0.8-1.8,1.3-3,1.5-3.6c0.3-0.6,0.6-1,1.1-1.2c0.6-0.1,1.2-0.2,1.8-0.1
			c0.6,0,1.1,0.2,1.4,0.5c0.4,0.5,0.5,1.1,0.3,1.8c-0.2,0.7-0.4,1.2-0.6,1.6c-0.1,0.4-0.4,0.7-0.7,0.8c-0.3,0.1-0.6,0.5-0.8,1.1
			c-0.5,1.1-0.9,2.3-1.4,3.5s-1,2.4-1.5,3.6l1-0.2c1.2-0.3,2.4-0.6,3.4-0.9S181.4,160.4,182.9,160.2z"/>
		<path class="st4" d="M185.7,166.4c-0.2-0.2-0.2-0.5,0-1c0.3-1.3,0.6-2.4,0.9-3.3c0.3-0.9,0.7-1.5,1.2-1.7c0.5-0.1,1.1-0.2,1.6-0.1
			c0.6,0.1,1,0.3,1.2,0.6c0.3,0.5,0.4,1.1,0.1,1.9c-0.3,0.8-0.6,1.9-1,3.2c-0.9,2.5-1.6,4.8-2.3,6.9c-0.7,2.1-1,3.8-0.9,5.1
			c0,1.7,0.3,3,1.1,3.7c0.8,0.7,1.8,0.6,3-0.3c0.6-0.4,1.4-1.1,2.2-2c0.9-0.9,1.8-1.9,2.8-3.1c1-1.2,1.9-2.4,2.9-3.7
			c0.9-1.3,1.7-2.6,2.4-3.8c0.2-0.4,0.4-0.5,0.8-0.3c0.4,0.2,0.5,0.4,0.3,0.8c-0.3,0.8-0.7,1.7-1.3,2.7c-0.6,1-1.3,2.1-2.1,3.2
			c-0.8,1.1-1.7,2.3-2.6,3.4c-0.9,1.1-1.8,2.1-2.7,2.9c-0.6,0.5-1.3,1.1-2.2,1.6c-0.9,0.5-1.8,0.9-2.8,1.1c-1,0.2-1.9,0.1-2.8-0.2
			c-0.9-0.3-1.6-1-2.2-2.2c-0.5-0.9-0.5-2.3-0.3-4.2c0.3-1.9,0.7-3.8,1.3-5.8c-0.3,0.5-0.6,1.1-0.9,1.8c-0.3,0.7-0.9,1.5-1.6,2.6
			c-0.3,0.5-0.7,0.6-1,0.3c-0.3-0.3-0.3-0.7-0.1-1.2c1.2-1.9,2.2-3.6,3-5.2C184.6,168.6,185.2,167.4,185.7,166.4z M194.9,150.7
			c0,0.2,0,0.5-0.2,1c-0.1,0.5-0.3,0.9-0.6,1.4c-0.2,0.5-0.5,0.9-0.7,1.3c-0.3,0.4-0.5,0.6-0.7,0.6c-0.7,0.1-1.5,0.1-2.2,0.1
			c-0.8,0-1.2-0.5-1.3-1.3c0-0.1,0.2-0.3,0.6-0.8c0.4-0.5,0.9-1,1.4-1.5c0.5-0.5,1-1,1.4-1.4c0.4-0.4,0.7-0.7,0.8-0.9
			c0.7-0.8,1.2-1.2,1.4-1.2c0.3-0.1,0.4,0.1,0.3,0.4s-0.1,0.7-0.2,1.2C194.8,149.9,194.8,150.3,194.9,150.7z"/>
		<path class="st4" d="M207.8,161.6c0.2-1.2,0.6-2.7,1.1-4.5c0.5-1.8,1-3.8,1.7-5.8c0.6-2.1,1.3-4.1,2-6.1c0.7-2,1.4-3.8,2.1-5.2
			c0.5-1.1,1.1-2.3,1.9-3.5s1.6-2.3,2.5-3.2c0.9-0.9,2-1.7,3.2-2.2c1.2-0.6,2.4-0.7,3.8-0.5c0.3,0.1,0.7,0.1,0.9,0.2
			c0.3,0,0.5,0.1,0.7,0.2c1.7,0.7,2.7,1.8,2.9,3.3c0.2,1.5,0,3.2-0.6,5.2c-0.5,1.7-1.4,3.7-2.7,6c-1.3,2.3-2.8,4.7-4.5,7.2
			c-1.7,2.5-3.5,5-5.4,7.4c-1.9,2.4-3.8,4.6-5.5,6.4c1.4-0.3,2.7-0.6,4.1-1c1.4-0.3,2.8-0.6,4.2-0.8c0.3,0,0.7-0.1,1,0
			c0.4,0,0.6,0.1,0.8,0.1c0.1,0.1,0.1,0.2-0.1,0.4c-0.2,0.2-0.7,0.5-1.5,0.9c-0.3,0.2-0.9,0.4-1.7,0.6c-0.8,0.2-1.7,0.5-2.8,0.8
			c-1.1,0.3-2.2,0.6-3.4,1c-1.2,0.3-2.4,0.6-3.6,0.9c-0.4,1.5-0.8,3.3-1.3,5.2c-0.4,2-0.9,4-1.4,6.1c-0.5,2.1-1,4.1-1.4,6.1
			c-0.4,2-0.8,3.8-1.2,5.5c-0.4,1.8-0.6,3.1-0.6,3.9c-0.1,0.8-0.1,1.5,0,2c0,0.5,0.1,0.8,0.1,1.1c0,0.3,0,0.7-0.1,1.2
			c-0.6,2.6-1,4.3-1.2,5.2c-0.2,0.9-0.6,1.6-1.1,2c-0.3,0.2-0.7,0.5-1.3,0.9c-0.6,0.3-1.2,0.6-1.7,0.8c-0.6,0.2-1,0.3-1.4,0.2
			c-0.4-0.1-0.4-0.4-0.2-1c0.1-0.3,0.3-1.1,0.7-2.6c0.4-1.4,0.8-3.2,1.4-5.3c0.6-2.1,1.2-4.5,1.8-7.1c0.7-2.6,1.3-5.3,2-8.1
			c0.7-2.7,1.4-5.4,2-8.1c0.6-2.7,1.3-5.1,1.8-7.3c-1,0.3-1.8,0.5-2.5,0.6c-0.7,0.2-1.2,0.3-1.6,0.3c-0.5,0.1-1,0-1.5-0.3
			c-0.5-0.3-0.8-0.7-0.9-1.2c0-0.3,0.1-0.7,0.5-1c0.4-0.3,0.8-0.7,1.2-0.9c0.5-0.3,1-0.5,1.5-0.6c0.5-0.2,0.9-0.3,1.3-0.3
			c0.7-0.1,1.1,0.1,1.5,0.5c0.3,0.4,0.6,0.6,1,0.5l0.2,0c0.4-1.5,0.7-2.8,1-3.8C207.5,162.9,207.7,162.1,207.8,161.6z M209.6,166.8
			c1.8-1.7,3.6-3.8,5.3-6.2c1.8-2.4,3.5-4.9,5.1-7.6c1.6-2.6,3.1-5.2,4.4-7.7c1.3-2.5,2.4-4.8,3.2-6.7c0.5-1.1,0.7-2.1,0.8-3.2
			c0.1-1-0.1-1.8-0.4-2.4c-0.3-0.6-0.8-0.8-1.5-0.7c-0.7,0.1-1.6,0.7-2.7,1.8c-0.7,0.7-1.5,1.7-2.3,3c-0.8,1.3-1.7,2.7-2.5,4.2
			c-0.8,1.6-1.6,3.2-2.4,4.8c-0.8,1.7-1.4,3.3-2,4.7c-0.7,1.8-1.3,3.5-1.9,5.2c-0.5,1.7-1,3.2-1.4,4.6c-0.4,1.4-0.7,2.5-1,3.3
			c-0.3,0.9-0.4,1.4-0.4,1.6c0,0.1-0.1,0.3-0.1,0.5C209.7,166.3,209.7,166.5,209.6,166.8z"/>
		<path class="st4" d="M259.8,161.7c-0.3,0.8-0.7,1.7-1.3,2.7c-0.6,1-1.3,2.1-2.1,3.2c-0.8,1.1-1.7,2.3-2.6,3.4
			c-0.9,1.1-1.8,2.1-2.7,2.9c-0.6,0.5-1.3,1.1-2.2,1.6c-0.9,0.5-1.8,0.9-2.8,1.1c-1,0.2-1.9,0.1-2.8-0.2c-0.9-0.3-1.6-1-2.2-2.2
			c-0.3-0.5-0.4-1.2-0.5-2c-0.1-0.9-0.1-1.8-0.1-2.8c0-1,0.1-2,0.2-2.9c0.1-1,0.3-1.8,0.5-2.6c-0.3,0.2-0.7,1.1-1.3,2.5
			c-0.5,1.4-1.3,2.9-2.2,4.6c-0.9,1.6-2,3.1-3.2,4.5c-1.3,1.4-2.7,2.2-4.2,2.4c-0.8,0.1-1.8,0-3-0.3c-1.2-0.3-2.2-0.8-2.8-1.6
			c-0.6-0.7-0.9-1.5-1.1-2.6c-0.2-1.1-0.2-2.2-0.1-3.4c0.1-1.2,0.4-2.5,0.8-3.8c0.4-1.3,0.9-2.5,1.5-3.8c0.2-0.4,0.5-0.9,0.7-1.6
			c0.3-0.6,0.6-1.2,0.9-1.7c0.3-0.5,0.6-1,0.8-1.4c0.3-0.4,0.5-0.6,0.7-0.7c0.7-0.3,1.4-0.5,2.2-0.6c0.8-0.1,1.5-0.1,2,0
			c0.6,0.1,0.8,0.4,0.6,0.7c-0.1,0.4-0.3,0.6-0.5,0.9c-0.4,0.5-0.9,1.1-1.5,1.9s-1.2,1.7-1.8,2.7c-0.6,1.1-1.2,2.2-1.7,3.5
			c-0.6,1.3-1,2.6-1.3,4c-0.4,1.8-0.4,3.2-0.2,4.2c0.2,1,0.7,1.7,1.4,1.9c0.7,0.3,1.6,0.2,2.6-0.3c1-0.5,2.2-1.4,3.4-2.7
			c1.3-1.4,2.6-3.2,3.9-5.5c1.3-2.3,2.6-4.6,3.7-6.9c0.3-0.6,0.7-1.3,1-2.2c0.3-0.9,0.7-1.8,1.1-2.7c0.4-0.9,0.7-1.8,1.1-2.6
			c0.3-0.8,0.6-1.4,0.8-1.9c0.3,0,0.7,0,1.3,0c0.6,0,1.1,0.1,1.6,0.2c0.5,0.1,0.9,0.3,1.3,0.5c0.3,0.2,0.4,0.5,0.3,0.9
			c-0.2,0.4-0.5,1.1-0.8,1.9c-0.3,0.8-0.7,1.7-1.1,2.6c-0.4,0.9-0.8,1.8-1.1,2.7c-0.4,0.9-0.6,1.6-0.8,2.2c-0.9,2.6-1.4,5.3-1.4,8.1
			c0,1.7,0.3,3,1.1,3.7c0.8,0.7,1.8,0.6,3-0.3c0.6-0.4,1.4-1.1,2.2-2c0.9-0.9,1.8-1.9,2.8-3.1c1-1.2,1.9-2.4,2.9-3.7
			c0.9-1.3,1.7-2.6,2.4-3.8c0.2-0.4,0.4-0.5,0.8-0.3C259.8,161.1,259.9,161.3,259.8,161.7z"/>
		<path class="st4" d="M261.8,162.4c-0.2,0.8-0.3,1.6-0.4,2.2c-0.1,0.6-0.1,1.2-0.1,1.6c0,1,0.1,2,0.3,2.9c0.2,0.9,0.6,1.6,1,2.2
			s1.1,0.9,1.8,0.9c0.7,0,1.7-0.4,2.8-1.2c0.7-0.5,1.6-1.2,2.5-2.2c0.9-1,1.8-2,2.8-3.2c0.9-1.2,1.9-2.4,2.7-3.6
			c0.9-1.2,1.6-2.3,2.1-3.3c0.2-0.4,0.4-0.5,0.8-0.3c0.4,0.2,0.4,0.5,0.2,1c-0.3,0.8-0.8,1.7-1.4,2.7c-0.6,1-1.4,2.1-2.2,3.3
			c-0.8,1.2-1.7,2.3-2.7,3.4c-0.9,1.1-1.8,2.1-2.7,2.9c-0.7,0.7-1.5,1.3-2.3,1.7c-0.8,0.4-1.6,0.7-2.4,0.8c-2.4,0.3-4.1-0.1-5.1-1.1
			c-1-1.1-1.6-2.5-1.7-4.4c-0.1-1.3,0-2.9,0.3-4.9c0.3-1.9,0.7-4,1.3-6.2c0.6-2.2,1.2-4.5,2-6.9c0.8-2.4,1.6-4.7,2.4-6.8
			c0.8-2.2,1.7-4.2,2.5-6.1c0.8-1.9,1.6-3.4,2.3-4.7c0.6-1.1,1.2-2.2,1.9-3.3s1.5-2.1,2.3-3.1c0.9-1,1.8-1.8,2.9-2.5
			c1-0.7,2.3-1.1,3.6-1.3c0.9-0.1,1.7-0.1,2.4,0.2c0.8,0.2,1.4,0.7,1.8,1.3s0.7,1.5,0.8,2.5c0.1,1-0.2,2.2-0.7,3.5
			c-2.5,6.1-5.6,11.8-9.5,17C270.3,152.6,266.1,157.6,261.8,162.4z M264.1,153.4c-0.3,1-0.6,1.9-0.9,2.9c-0.2,0.9-0.5,1.9-0.7,2.8
			c1.8-1.6,3.6-3.6,5.5-6.2c1.9-2.5,3.7-5.2,5.4-8c1.7-2.8,3.2-5.6,4.6-8.4c1.4-2.8,2.5-5.3,3.3-7.5c0.8-2,0.8-3.4,0-4
			c-0.8-0.6-2-0.2-3.5,1.4c-2.2,2.2-4.1,4.8-5.7,7.7c-1.7,2.9-3.1,6.1-4.4,9.4c-0.4,0.9-0.9,2.2-1.5,4.1
			C265.4,149.6,264.8,151.5,264.1,153.4z"/>
	</g>
	<g>
		<defs>
			
				<rect id="SVGID_00000082332264602824349500000007872726907932799121_" x="-36" y="98.1" transform="matrix(0.999 -4.551938e-02 4.551938e-02 0.999 -8.1902 6.718)" width="358.8" height="170.1"/>
		</defs>
		<clipPath id="SVGID_00000012466740326931940000000002421549531257741487_">
			<use xlink:href="#SVGID_00000082332264602824349500000007872726907932799121_"  style="overflow:visible;"/>
		</clipPath>
		
			<path style="clip-path:url(#SVGID_00000012466740326931940000000002421549531257741487_);fill:none;stroke:#9BC13C;stroke-width:1.9708;stroke-miterlimit:6.385;" d="
			M60.8,189.2c-0.3-2.4-1.3-4.4-2.9-6.2c-1.6-1.8-3.7-3.4-6.2-4.7c-2.5-1.3-5-2.5-7.4-3.6c1.8-0.3,4-0.9,6.6-1.7
			c2.6-0.8,5.1-1.9,7.4-3.3c2.3-1.3,4.3-3,5.8-4.8c1.5-1.9,2.1-4,1.8-6.5c-0.2-1.8-1.2-3.3-2.8-4.6c-1.6-1.3-3.8-2.1-6.4-2.3
			c-2.4-0.2-5.2,0-8.5,0.5c-3.3,0.6-6.7,1.4-10.1,2.4c-3.4,1-6.7,2.2-9.8,3.6c-3.1,1.4-5.6,2.8-7.6,4.2c-1,0.7-2.2,1.6-3.4,2.7
			c-1.2,1.1-2.3,2.2-3.3,3.4c-1,1.2-1.8,2.5-2.5,3.7c-0.6,1.3-0.9,2.6-0.9,3.8c0,0.1,0.1,0.3,0.2,0.6c0.1,0.3,0.2,0.5,0.2,0.6
			c0,1.2,0.3,2.3,0.9,3.1c0.7,0.9,1.4,1.6,2.4,2.1c0.9,0.5,1.9,0.9,2.9,1.1c1,0.2,1.8,0.3,2.5,0.3c0.6,0,1-0.1,1.1-0.4
			c0.1-0.3-0.1-0.5-0.8-0.8c-0.5-0.1-1.1-0.3-1.8-0.4c-0.7-0.1-1.4-0.4-2.1-0.7c-0.7-0.3-1.3-0.7-1.9-1.3c-0.5-0.6-0.8-1.3-0.8-2.3
			c0-2.2,0.8-4.3,2.4-6.3c1.6-2,3.8-3.9,6.4-5.7c2.6-1.8,5.6-3.4,8.9-4.8c3.3-1.4,6.6-2.7,9.8-3.7c3.2-1,6.3-1.8,9.2-2.3
			c2.9-0.5,5.2-0.7,6.9-0.6c1.7,0.1,3,0.4,4,0.9c1,0.5,1.6,1.1,2,1.8c0.4,0.7,0.5,1.5,0.3,2.4c-0.2,0.9-0.5,1.8-1,2.6
			c-0.6,1.2-1.8,2.4-3.3,3.6c-1.6,1.2-3.3,2.4-5.1,3.4c-1.8,1-3.7,1.9-5.5,2.7c-1.8,0.7-3.3,1.2-4.6,1.4c-0.3,0-0.7,0.2-1.1,0.3
			c-0.4,0.2-0.7,0.4-1.1,0.7c-0.3,0.3-0.6,0.6-0.8,1c-0.2,0.3-0.2,0.7-0.1,1.1c0.1,0.5,0.6,1.1,1.3,1.7c0.8,0.6,1.6,1.3,2.6,2
			c1,0.7,2.1,1.4,3.3,2.2c1.2,0.7,2.2,1.6,3.2,2.4c2.6,2.2,4.2,4.4,4.7,6.6c0.6,2.2,0.5,4.2-0.4,6c-0.9,1.8-2.3,3.4-4.4,4.7
			c-2.1,1.3-4.6,2.1-7.4,2.5c-2.4,0.3-4.3,0-5.7-0.9c-1.5-0.9-2.5-2.1-3-3.7c-0.2-0.6-0.5-1.4-0.7-2.2c-0.2-0.8-0.9-1.1-1.9-1
			c-0.3,0-0.7,0.3-1.2,0.9c-0.5,0.6-0.9,1.3-1.4,2.1c-0.4,0.6-0.8,1.1-1.3,1.4c-0.5,0.4-0.9,0.5-1.2,0.4c-0.3-0.1-0.6-0.4-0.7-1
			c-0.1-0.6,0-1.4,0.3-2.6c0.4-1.3,0.9-3,1.6-5.1c0.7-2.2,1.5-4.5,2.5-7c1-2.5,2-5,3.2-7.5c1.1-2.5,2.3-4.8,3.5-6.9
			c1.2-2.1,2.5-3.8,3.8-5.2c1.3-1.4,2.5-2.1,3.7-2.3c0.2,0,0.5,0,0.8,0.1c0.3,0.1,0.3-0.1,0-0.8c-0.2-0.4-0.5-0.8-0.9-1.1
			c-0.4-0.3-0.9-0.5-1.4-0.7c-0.5-0.2-1-0.3-1.4-0.3c-0.4,0-0.8,0-1,0c-1.1,0.1-2.1,0.7-3.2,1.5c-1.1,0.9-2,1.9-2.9,3
			c-0.8,1.2-1.5,2.3-2.1,3.4c-0.5,1.1-0.8,2.1-0.8,2.7c0.1,0.3,0.2,0.6,0.3,1.1c0.1,0.5-0.1,1.2-0.4,2.3c-0.3,0.8-0.7,2-1.3,3.5
			c-0.6,1.5-1.2,3.2-1.9,5.1c-0.7,1.9-1.4,3.9-2.1,6c-0.7,2.1-1.4,4-1.9,5.9c-0.6,1.9-1,3.6-1.2,5.1c-0.3,1.5-0.3,2.7,0,3.6
			c0,0.1,0.2,0.2,0.5,0.3c0.3,0.1,0.7,0.2,1,0.2c0.4,0.1,0.7,0.1,1,0.1c0.3,0,0.5,0,0.6,0c0.5-0.1,0.9-0.3,1.3-0.7
			c0.4-0.4,0.8-0.9,1.2-1.4c0.4-0.6,0.8-1.1,1.1-1.7c0.3-0.6,0.6-1.2,0.9-1.7l0.1,0.5c0.7,2.4,2.1,4,4.2,4.9
			c2.2,0.9,4.7,1.1,7.8,0.7c3.2-0.4,6.1-1.4,8.8-3c2.6-1.6,4.6-3.4,5.9-5.5C60.3,194.2,61.1,191.5,60.8,189.2z"/>
		
			<path style="clip-path:url(#SVGID_00000012466740326931940000000002421549531257741487_);fill:none;stroke:#9BC13C;stroke-width:1.9708;stroke-miterlimit:6.385;" d="
			M93.5,181.3c-0.3-0.1-0.6,0.1-0.8,0.4c-1.2,2.2-2.9,4.4-5,6.8c-2.1,2.4-4.5,4.3-7.3,5.9c-1.2,0.7-2.5,1.2-3.8,1.6
			c-1.3,0.4-2.4,0.5-3.4,0.3c-1-0.2-1.8-0.7-2.4-1.5c-0.5-0.8-0.7-2.1-0.4-3.8c0.3-1.5,0.8-3.1,1.6-4.7c0.8-1.6,1.7-3.2,2.8-4.6
			c1.1-1.5,2.2-2.8,3.4-4.1c1.2-1.2,2.4-2.2,3.5-2.9c0.2-0.2,0.6-0.4,1-0.6c0.4-0.2,0.9-0.4,1.3-0.5c0.4-0.1,0.8-0.1,1.2,0
			c0.4,0.1,0.6,0.4,0.6,1c0.1,0.5,0,1-0.2,1.5c-0.2,0.5-0.4,1-0.7,1.5c-0.3,0.5-0.6,1-1,1.4c-0.4,0.5-0.7,0.8-1,1.1
			c-1.4,1.4-2.9,2.7-4.7,4c-1.8,1.3-3.3,2.1-4.5,2.4c-0.6,0.1-0.8,0.4-0.6,0.7c0.2,0.3,0.6,0.4,1.2,0.3c0.8-0.2,1.9-0.6,3.2-1.1
			c1.3-0.6,2.5-1.3,3.7-2.1c1.2-0.8,2.4-1.8,3.5-2.8c1.1-1,1.9-2.1,2.5-3.3c0.3-0.6,0.5-1.2,0.6-2c0.1-0.7,0.1-1.5,0-2.2
			c-0.1-0.7-0.4-1.3-0.9-1.9c-0.5-0.5-1.1-0.9-1.9-1c-1.6-0.3-3.3,0.2-5.3,1.3c-2,1.1-3.9,2.6-5.7,4.4c-1.9,1.8-3.5,3.7-4.9,5.7
			c-1.4,2-2.3,3.7-2.7,5.1c-0.8,2.6-0.8,4.8,0,6.3c0.8,1.6,2,2.7,3.6,3.3c1.6,0.6,3.5,0.8,5.6,0.5c2.1-0.3,4.1-0.9,6-2
			c2.6-1.5,4.9-3.4,7-5.8c2.1-2.3,3.8-4.9,5.2-7.7C94,181.8,93.9,181.4,93.5,181.3z"/>
		
			<path style="clip-path:url(#SVGID_00000012466740326931940000000002421549531257741487_);fill:none;stroke:#9BC13C;stroke-width:1.9708;stroke-miterlimit:6.385;" d="
			M101.9,191.2c1.5-1.4,2.8-2.9,4.1-4.5c1.2-1.6,2.3-3.1,3.2-4.5c0.9-1.4,1.5-2.2,1.8-2.3c-0.2,0.8-0.3,1.6-0.4,2.5
			c-0.1,0.9-0.2,1.8-0.2,2.7c0,0.9,0,1.8,0.1,2.5c0.1,0.8,0.2,1.4,0.5,1.9c0.6,1.1,1.3,1.9,2.2,2.2c0.9,0.3,1.9,0.4,2.8,0.2
			c1-0.2,1.9-0.6,2.8-1.1c0.9-0.5,1.6-1.1,2.2-1.6c0.9-0.9,1.8-1.8,2.7-2.9c0.9-1.1,1.8-2.1,2.6-3.3c0.8-1.1,1.5-2.2,2.2-3.3
			c0.6-1.1,1.1-2,1.4-2.7c0.2-0.4,0-0.6-0.3-0.8c-0.4-0.2-0.6-0.1-0.8,0.3c-0.6,1.2-1.4,2.5-2.4,3.8c-0.9,1.3-1.9,2.5-2.9,3.7
			c-1,1.2-1.9,2.2-2.8,3.1c-0.9,0.9-1.6,1.5-2.2,2c-1.2,0.9-2.2,1-3,0.3c-0.8-0.7-1.2-1.9-1.1-3.7c0-1.3,0.2-3.1,0.7-5.4
			c0.5-2.2,1.3-4.5,2.5-6.7c0.2-0.4,0.1-0.6-0.2-0.8c-0.3-0.2-0.6-0.4-1-0.5c-0.4-0.1-0.8-0.2-1.3-0.2c-0.4,0-0.8,0-1,0
			c-0.2,0-0.6,0.4-1.2,1.2c-0.6,0.8-1.3,1.7-2,2.7c-0.7,1-1.4,2-2.1,3c-0.7,1-1.1,1.6-1.4,1.9c-0.9,1.3-2,2.6-3.4,4.2
			c-1.3,1.5-2.5,2.8-3.4,3.8c-0.2,0.2-0.6,0.6-1.1,1.1c-0.5,0.5-1,0.9-1.6,1.3c-0.6,0.4-1.2,0.7-1.7,0.8c-0.5,0.2-1,0.1-1.3-0.3
			c-0.7-0.8-1-1.8-0.8-3.2c0.2-1.3,0.6-2.7,1.2-4.1c0.6-1.4,1.3-2.7,2.1-3.9c0.8-1.2,1.5-2.1,2-2.7c1.8-2.1,3.8-4,6.2-5.7
			c2.3-1.7,4.5-2.7,6.6-2.9c0.7-0.1,1.5-0.1,2.2,0c0.7,0.1,1.4,0.4,1.9,1c0.4,0.2,0.5,0,0.4-0.5c-0.1-0.8-0.7-1.4-1.7-1.9
			c-1.1-0.6-2.5-0.8-4-0.6c-1.5,0.2-2.8,0.5-4,1c-1,0.4-2.1,1.1-3.6,2c-1.4,1-2.9,2.1-4.4,3.5c-1.5,1.4-2.9,2.8-4.3,4.4
			c-1.4,1.6-2.5,3.1-3.3,4.8c-0.8,1.6-1.2,3.1-1.3,4.6c-0.1,1.4,0.5,2.7,1.6,3.8c0.7,0.7,1.6,1.2,2.6,1.6c1,0.4,2,0.5,2.8,0.4
			C98.9,193.4,100.4,192.6,101.9,191.2z"/>
		
			<path style="clip-path:url(#SVGID_00000012466740326931940000000002421549531257741487_);fill:none;stroke:#9BC13C;stroke-width:1.9708;stroke-miterlimit:6.385;" d="
			M164.6,171.7c-0.4-0.2-0.6-0.1-0.8,0.3c-0.6,1.2-1.4,2.5-2.4,3.8c-0.9,1.3-1.9,2.5-2.9,3.7c-1,1.2-1.9,2.2-2.8,3.1
			c-0.9,0.9-1.6,1.5-2.2,2c-1.2,0.9-2.2,1-3,0.3c-0.8-0.7-1.2-1.9-1.1-3.7c0-2.8,0.5-5.5,1.4-8.1c0.2-0.6,0.5-1.3,0.8-2.2
			c0.3-0.9,0.7-1.8,1.1-2.7c0.4-0.9,0.7-1.7,1.1-2.6c0.3-0.8,0.6-1.4,0.8-1.9c0.2-0.4,0.1-0.6-0.3-0.9c-0.3-0.2-0.8-0.4-1.3-0.5
			c-0.5-0.1-1.1-0.2-1.6-0.2c-0.6,0-1,0-1.3,0c-0.2,0.4-0.5,1.1-0.8,1.9c-0.3,0.8-0.7,1.7-1.1,2.6c-0.4,0.9-0.7,1.8-1.1,2.7
			c-0.4,0.9-0.7,1.6-1,2.2c-1.2,2.3-2.4,4.6-3.7,6.9c-1.3,2.3-2.6,4.1-3.9,5.5c-1.2,1.3-2.4,2.2-3.4,2.7c-1,0.5-1.9,0.6-2.6,0.3
			c-0.7-0.3-1.2-0.9-1.4-1.9c-0.2-1-0.1-2.4,0.2-4.2c0.3-1.4,0.7-2.7,1.3-4c0.6-1.3,1.1-2.4,1.7-3.5c0.6-1,1.2-2,1.8-2.7
			c0.6-0.8,1.1-1.4,1.5-1.9c0.2-0.2,0.4-0.5,0.5-0.9c0.1-0.3-0.1-0.6-0.6-0.7c-0.6-0.1-1.2-0.1-2,0c-0.8,0.1-1.5,0.3-2.2,0.6
			c-0.2,0.1-0.4,0.3-0.7,0.7c-0.3,0.4-0.5,0.8-0.8,1.4c-0.3,0.5-0.6,1.1-0.9,1.7c-0.3,0.6-0.5,1.1-0.7,1.6c-0.6,1.2-1.1,2.5-1.5,3.8
			c-0.4,1.3-0.6,2.5-0.8,3.8c-0.1,1.2-0.1,2.4,0.1,3.4c0.2,1.1,0.5,2,1.1,2.6c0.6,0.8,1.6,1.3,2.8,1.6c1.2,0.3,2.3,0.4,3.1,0.3
			c1.6-0.2,3-1,4.2-2.4c1.3-1.4,2.3-2.9,3.2-4.5c0.9-1.6,1.6-3.1,2.2-4.6c0.5-1.4,1-2.2,1.3-2.5c-0.2,0.8-0.3,1.6-0.5,2.6
			c-0.1,1-0.2,1.9-0.2,2.9c0,1,0,1.9,0.1,2.8c0.1,0.9,0.3,1.5,0.5,2c0.6,1.1,1.3,1.9,2.2,2.2c0.9,0.3,1.9,0.4,2.8,0.2
			c1-0.2,1.9-0.6,2.8-1.1c0.9-0.5,1.6-1.1,2.2-1.6c0.9-0.9,1.8-1.8,2.7-2.9c0.9-1.1,1.8-2.2,2.6-3.4c0.8-1.1,1.5-2.2,2.1-3.2
			c0.6-1,1-1.9,1.3-2.7C165.1,172.1,165,171.8,164.6,171.7z"/>
		
			<path style="clip-path:url(#SVGID_00000012466740326931940000000002421549531257741487_);fill:none;stroke:#9BC13C;stroke-width:1.9708;stroke-miterlimit:6.385;" d="
			M177.6,159.1c-1.1,0.3-2.2,0.6-3.4,0.9l-1,0.2c0.5-1.2,1-2.4,1.5-3.6c0.5-1.2,0.9-2.4,1.4-3.5c0.2-0.6,0.4-0.9,0.8-1.1
			c0.3-0.1,0.5-0.4,0.7-0.8c0.2-0.4,0.4-0.9,0.6-1.6c0.2-0.7,0.1-1.3-0.3-1.8c-0.3-0.3-0.8-0.5-1.4-0.5c-0.6,0-1.3,0-1.8,0.1
			c-0.5,0.2-0.9,0.6-1.2,1.2c-0.3,0.6-0.8,1.8-1.5,3.6c0,0.1-0.1,0.3-0.3,0.8c-0.2,0.5-0.4,1.1-0.7,1.9c-0.3,0.7-0.6,1.6-0.9,2.5
			c-0.3,0.9-0.7,1.8-1,2.7c-0.1,0-0.2,0.1-0.3,0.1c-0.7,0.2-1.5,0.4-2.3,0.6c-0.8,0.2-1.4,0.7-1.6,1.5c-0.2,0.6-0.1,1,0.2,1.2
			c0.3,0.3,0.7,0.4,1.1,0.3c0.2,0,0.4-0.1,0.7-0.1c0.3,0,0.6-0.1,1-0.2c-0.4,1-0.7,1.8-0.9,2.4c-0.2,0.6-0.3,1-0.3,1
			c-0.5,1-1.1,2.3-2,3.8c-0.9,1.6-1.9,3.3-3,5.2c-0.3,0.5-0.2,0.9,0.1,1.2c0.3,0.3,0.6,0.2,1-0.3c0.7-1,1.3-1.9,1.6-2.6
			c0.3-0.7,0.6-1.3,0.9-1.8c-0.6,2-1.1,3.9-1.3,5.8c-0.3,1.9-0.2,3.3,0.3,4.2c0.6,1.1,1.3,1.9,2.2,2.2c0.9,0.3,1.9,0.4,2.8,0.2
			c1-0.2,1.9-0.6,2.8-1.1c0.9-0.5,1.6-1.1,2.2-1.6c0.9-0.9,1.8-1.8,2.7-2.9c0.9-1.1,1.8-2.2,2.6-3.4c0.8-1.1,1.5-2.2,2.1-3.2
			c0.6-1,1-1.9,1.3-2.7c0.2-0.4,0.1-0.6-0.3-0.8c-0.4-0.2-0.6-0.1-0.8,0.3c-0.6,1.2-1.4,2.5-2.4,3.8c-0.9,1.3-1.9,2.5-2.9,3.7
			c-1,1.2-1.9,2.2-2.8,3.1c-0.9,0.9-1.6,1.5-2.2,2c-1.2,0.9-2.2,1-3,0.3s-1.2-1.9-1.1-3.7c0-1.3,0.3-3,0.9-5.1
			c0.7-2.1,1.4-4.4,2.3-6.9c0.1-0.3,0.3-0.9,0.6-1.6c0.3-0.7,0.7-1.6,1.1-2.6c1.8-0.4,3.6-0.9,5.3-1.4c1.7-0.5,2.8-0.9,3.4-1.2
			c0.8-0.3,1.4-0.6,1.6-0.8c0.2-0.2,0.3-0.3,0.2-0.4c-0.1-0.1-0.3-0.1-0.5-0.2c-0.3,0-0.5,0-0.8,0
			C179.9,158.6,178.6,158.8,177.6,159.1z"/>
		
			<path style="clip-path:url(#SVGID_00000012466740326931940000000002421549531257741487_);fill:none;stroke:#9BC13C;stroke-width:1.9708;stroke-miterlimit:6.385;" d="
			M182.3,168.5c-0.9,1.6-1.9,3.3-3,5.2c-0.3,0.5-0.2,0.9,0.1,1.2c0.3,0.3,0.6,0.2,1-0.3c0.7-1,1.3-1.9,1.6-2.6
			c0.3-0.7,0.6-1.3,0.9-1.8c-0.6,2-1.1,3.9-1.3,5.8c-0.3,1.9-0.2,3.3,0.3,4.2c0.6,1.1,1.3,1.9,2.2,2.2c0.9,0.3,1.9,0.4,2.8,0.2
			c1-0.2,1.9-0.6,2.8-1.1c0.9-0.5,1.6-1.1,2.2-1.6c0.9-0.9,1.8-1.8,2.7-2.9c0.9-1.1,1.8-2.2,2.6-3.4c0.8-1.1,1.5-2.2,2.1-3.2
			c0.6-1,1-1.9,1.3-2.7c0.2-0.4,0.1-0.6-0.3-0.8c-0.4-0.2-0.6-0.1-0.8,0.3c-0.6,1.2-1.4,2.5-2.4,3.8c-0.9,1.3-1.9,2.5-2.9,3.7
			c-1,1.2-1.9,2.2-2.8,3.1c-0.9,0.9-1.6,1.5-2.2,2c-1.2,0.9-2.2,1-3,0.3c-0.8-0.7-1.2-1.9-1.1-3.7c0-1.3,0.3-3,0.9-5.1
			c0.7-2.1,1.4-4.4,2.3-6.9c0.4-1.3,0.8-2.4,1-3.2c0.3-0.8,0.2-1.5-0.1-1.9c-0.2-0.4-0.7-0.6-1.2-0.6c-0.6-0.1-1.1,0-1.6,0.1
			c-0.5,0.2-0.9,0.8-1.2,1.7c-0.3,0.9-0.6,2-0.9,3.3c-0.1,0.5-0.1,0.8,0,1C183.8,165.6,183.1,166.9,182.3,168.5z M193.5,147.6
			c0.1-0.5,0.2-0.9,0.2-1.2c0-0.3-0.1-0.4-0.3-0.4c-0.3,0.1-0.7,0.5-1.4,1.2c-0.1,0.2-0.4,0.4-0.8,0.9c-0.4,0.4-0.9,0.9-1.4,1.4
			c-0.5,0.5-1,1-1.4,1.5c-0.4,0.5-0.6,0.7-0.6,0.8c0.1,0.9,0.6,1.3,1.3,1.3c0.8,0,1.5,0,2.2-0.1c0.2,0,0.4-0.2,0.7-0.6
			c0.3-0.4,0.5-0.8,0.7-1.3c0.2-0.5,0.4-0.9,0.6-1.4c0.1-0.5,0.2-0.8,0.2-1C193.4,148.6,193.4,148.1,193.5,147.6z"/>
		
			<path style="clip-path:url(#SVGID_00000012466740326931940000000002421549531257741487_);fill:none;stroke:#9BC13C;stroke-width:1.9708;stroke-miterlimit:6.385;" d="
			M208.3,164.3c0-0.2,0.1-0.4,0.1-0.5c0-0.2,0.2-0.7,0.4-1.6c0.3-0.9,0.6-2,1-3.3c0.4-1.4,0.9-2.9,1.4-4.6c0.5-1.7,1.2-3.4,1.9-5.2
			c0.5-1.5,1.2-3.1,2-4.7c0.8-1.7,1.6-3.3,2.4-4.8c0.8-1.5,1.7-3,2.5-4.2c0.8-1.3,1.6-2.3,2.3-3c1.1-1.1,2-1.7,2.7-1.8
			c0.7-0.1,1.2,0.1,1.5,0.7c0.3,0.6,0.4,1.4,0.4,2.4c-0.1,1-0.3,2.1-0.8,3.2c-0.8,2-1.9,4.2-3.2,6.7c-1.3,2.5-2.8,5.1-4.4,7.7
			c-1.6,2.6-3.3,5.1-5.1,7.6c-1.8,2.4-3.6,4.5-5.3,6.2C208.2,164.8,208.3,164.5,208.3,164.3z M205.8,162.2c-0.3,1-0.6,2.3-1,3.8
			l-0.2,0c-0.3,0-0.7-0.1-1-0.5c-0.3-0.4-0.8-0.5-1.5-0.5c-0.3,0-0.8,0.2-1.3,0.3c-0.5,0.2-1,0.4-1.5,0.6c-0.5,0.3-0.9,0.6-1.2,0.9
			c-0.4,0.3-0.5,0.7-0.5,1c0.1,0.5,0.4,0.9,0.9,1.2c0.5,0.3,1,0.4,1.5,0.3c0.3,0,0.8-0.1,1.6-0.3c0.7-0.2,1.6-0.4,2.5-0.6
			c-0.6,2.2-1.2,4.7-1.8,7.3c-0.6,2.7-1.3,5.4-2,8.1c-0.7,2.7-1.4,5.4-2,8.1c-0.7,2.6-1.3,5-1.8,7.1c-0.6,2.1-1,3.9-1.4,5.3
			c-0.4,1.4-0.6,2.3-0.7,2.6c-0.2,0.6-0.2,1,0.2,1c0.4,0.1,0.8,0,1.4-0.2c0.6-0.2,1.2-0.5,1.7-0.8c0.6-0.3,1-0.6,1.3-0.9
			c0.5-0.4,0.9-1.1,1.1-2c0.2-0.9,0.6-2.7,1.2-5.2c0.1-0.6,0.2-1,0.1-1.2c0-0.3-0.1-0.6-0.1-1.1c0-0.5,0-1.1,0-2
			c0.1-0.8,0.3-2.2,0.6-3.9c0.4-1.7,0.8-3.5,1.2-5.5c0.4-2,0.9-4,1.4-6.1c0.5-2.1,1-4.1,1.4-6.1c0.4-2,0.9-3.7,1.3-5.2
			c1.2-0.3,2.4-0.6,3.6-0.9c1.2-0.3,2.4-0.7,3.4-1c1.1-0.3,2-0.6,2.8-0.8c0.8-0.2,1.4-0.4,1.7-0.6c0.8-0.4,1.3-0.7,1.5-0.9
			c0.2-0.2,0.2-0.3,0.1-0.4c-0.1-0.1-0.4-0.1-0.8-0.1c-0.4,0-0.7,0-1,0c-1.4,0.2-2.8,0.4-4.2,0.8c-1.4,0.3-2.8,0.6-4.1,1
			c1.8-1.8,3.6-4,5.5-6.4c1.9-2.4,3.7-4.9,5.4-7.4c1.7-2.5,3.2-4.9,4.5-7.2c1.3-2.3,2.2-4.3,2.7-6c0.6-2,0.8-3.7,0.6-5.2
			c-0.2-1.5-1.2-2.6-2.9-3.3c-0.2-0.1-0.5-0.2-0.7-0.2c-0.3,0-0.6-0.1-0.9-0.2c-1.4-0.2-2.6,0-3.8,0.5c-1.2,0.6-2.2,1.3-3.2,2.2
			c-0.9,0.9-1.8,2-2.5,3.2c-0.7,1.2-1.4,2.4-1.9,3.5c-0.7,1.5-1.4,3.2-2.1,5.2c-0.7,2-1.4,4-2,6.1c-0.6,2.1-1.2,4-1.7,5.8
			c-0.5,1.8-0.9,3.3-1.1,4.5C206.2,160.4,206.1,161.1,205.8,162.2z"/>
		
			<path style="clip-path:url(#SVGID_00000012466740326931940000000002421549531257741487_);fill:none;stroke:#9BC13C;stroke-width:1.9708;stroke-miterlimit:6.385;" d="
			M258,159.2c-0.4-0.2-0.6-0.1-0.8,0.3c-0.6,1.2-1.4,2.5-2.4,3.8c-0.9,1.3-1.9,2.5-2.9,3.7c-1,1.2-1.9,2.2-2.8,3.1
			c-0.9,0.9-1.6,1.5-2.2,2c-1.2,0.9-2.2,1-3,0.3c-0.8-0.7-1.2-1.9-1.1-3.7c0-2.8,0.5-5.5,1.4-8.1c0.2-0.6,0.5-1.3,0.8-2.2
			c0.3-0.9,0.7-1.8,1.1-2.7c0.4-0.9,0.7-1.7,1.1-2.6c0.3-0.8,0.6-1.4,0.8-1.9c0.2-0.4,0.1-0.6-0.3-0.9c-0.3-0.2-0.8-0.4-1.3-0.5
			c-0.5-0.1-1.1-0.2-1.6-0.2c-0.6,0-1,0-1.3,0c-0.2,0.4-0.5,1.1-0.8,1.9c-0.3,0.8-0.7,1.7-1.1,2.6c-0.4,0.9-0.7,1.8-1.1,2.7
			c-0.4,0.9-0.7,1.6-1,2.2c-1.2,2.3-2.4,4.6-3.7,6.9c-1.3,2.3-2.6,4.1-3.9,5.5c-1.2,1.3-2.4,2.2-3.4,2.7c-1,0.5-1.9,0.6-2.6,0.3
			c-0.7-0.3-1.2-0.9-1.4-1.9c-0.2-1-0.1-2.4,0.2-4.2c0.3-1.4,0.7-2.7,1.3-4c0.6-1.3,1.1-2.4,1.7-3.5c0.6-1,1.2-2,1.8-2.7
			c0.6-0.8,1.1-1.4,1.5-1.9c0.2-0.2,0.4-0.5,0.5-0.9c0.1-0.3-0.1-0.6-0.6-0.7c-0.6-0.1-1.2-0.1-2,0c-0.8,0.1-1.5,0.3-2.2,0.6
			c-0.2,0.1-0.4,0.3-0.7,0.7c-0.3,0.4-0.5,0.8-0.8,1.4c-0.3,0.5-0.6,1.1-0.9,1.7c-0.3,0.6-0.5,1.1-0.7,1.6c-0.6,1.2-1.1,2.5-1.5,3.8
			c-0.4,1.3-0.6,2.5-0.8,3.8c-0.1,1.2-0.1,2.4,0.1,3.4c0.2,1.1,0.5,2,1.1,2.6c0.6,0.8,1.6,1.3,2.8,1.6c1.2,0.3,2.3,0.4,3.1,0.3
			c1.6-0.2,3-1,4.2-2.4c1.3-1.4,2.3-2.9,3.2-4.5c0.9-1.6,1.6-3.1,2.2-4.6c0.5-1.4,1-2.2,1.3-2.5c-0.2,0.8-0.3,1.6-0.5,2.6
			c-0.1,1-0.2,1.9-0.2,2.9c0,1,0,1.9,0.1,2.8c0.1,0.9,0.3,1.5,0.5,2c0.6,1.1,1.3,1.9,2.2,2.2c0.9,0.3,1.9,0.4,2.8,0.2
			c1-0.2,1.9-0.6,2.8-1.1c0.9-0.5,1.6-1.1,2.2-1.6c0.9-0.9,1.8-1.8,2.7-2.9c0.9-1.1,1.8-2.2,2.6-3.4c0.8-1.1,1.5-2.2,2.1-3.2
			c0.6-1,1-1.9,1.3-2.7C258.5,159.6,258.4,159.3,258,159.2z"/>
		
			<path style="clip-path:url(#SVGID_00000012466740326931940000000002421549531257741487_);fill:none;stroke:#9BC13C;stroke-width:1.9708;stroke-miterlimit:6.385;" d="
			M264.6,146c0.7-1.9,1.2-3.3,1.5-4.1c1.3-3.3,2.8-6.4,4.4-9.4c1.6-2.9,3.6-5.5,5.7-7.7c1.5-1.5,2.7-2,3.5-1.4c0.8,0.6,0.8,2,0,4
			c-0.8,2.2-1.9,4.7-3.3,7.5c-1.4,2.8-2.9,5.6-4.6,8.4c-1.7,2.8-3.5,5.5-5.4,8c-1.9,2.5-3.7,4.6-5.5,6.2c0.2-1,0.4-1.9,0.7-2.8
			c0.2-0.9,0.5-1.9,0.9-2.9C263.3,149.8,264,147.9,264.6,146z M272.6,145.6c3.8-5.3,7-10.9,9.5-17c0.6-1.3,0.8-2.5,0.7-3.5
			c-0.1-1-0.3-1.8-0.8-2.5c-0.5-0.6-1.1-1.1-1.8-1.3c-0.8-0.2-1.6-0.3-2.4-0.2c-1.4,0.2-2.6,0.6-3.6,1.3c-1,0.7-2,1.5-2.9,2.5
			c-0.9,1-1.7,2-2.3,3.1c-0.7,1.1-1.3,2.2-1.9,3.3c-0.7,1.2-1.5,2.8-2.3,4.7c-0.8,1.9-1.7,3.9-2.5,6.1c-0.8,2.2-1.6,4.5-2.4,6.8
			c-0.8,2.4-1.4,4.7-2,6.9c-0.6,2.2-1,4.3-1.3,6.2c-0.3,1.9-0.4,3.5-0.3,4.9c0.1,1.9,0.7,3.3,1.7,4.4c1,1.1,2.8,1.4,5.1,1.1
			c0.7-0.1,1.5-0.4,2.4-0.8c0.8-0.4,1.6-1,2.3-1.7c0.9-0.9,1.8-1.8,2.7-2.9c0.9-1.1,1.8-2.2,2.7-3.4c0.9-1.2,1.6-2.2,2.2-3.3
			c0.6-1,1.1-1.9,1.4-2.7c0.2-0.5,0.1-0.8-0.2-1c-0.4-0.2-0.6-0.1-0.8,0.3c-0.5,1-1.2,2.1-2.1,3.3c-0.9,1.2-1.8,2.4-2.7,3.6
			c-0.9,1.2-1.9,2.2-2.8,3.2c-0.9,1-1.7,1.7-2.5,2.2c-1.1,0.8-2,1.2-2.8,1.2c-0.7,0-1.3-0.3-1.8-0.9c-0.5-0.6-0.8-1.3-1-2.2
			c-0.2-0.9-0.3-1.9-0.3-2.9c0-0.4,0.1-0.9,0.1-1.6c0.1-0.6,0.2-1.4,0.4-2.2C264.7,155.9,268.8,150.9,272.6,145.6z"/>
	</g>
	<g>
		<path class="st2" d="M58.2,197.3c-1.3,2.1-3.3,4-5.9,5.5c-2.6,1.6-5.6,2.6-8.8,3c-3,0.4-5.6,0.2-7.8-0.7c-2.2-0.9-3.6-2.5-4.2-4.9
			l-0.1-0.5c-0.3,0.5-0.6,1.1-0.9,1.7c-0.3,0.6-0.7,1.2-1.1,1.7c-0.4,0.6-0.8,1-1.2,1.4c-0.4,0.4-0.9,0.6-1.3,0.7
			c-0.1,0-0.3,0-0.6,0c-0.3,0-0.6,0-1-0.1c-0.4-0.1-0.7-0.1-1-0.2c-0.3-0.1-0.5-0.2-0.5-0.3c-0.2-0.8-0.2-2,0-3.6
			c0.3-1.5,0.7-3.3,1.2-5.1c0.6-1.9,1.2-3.9,1.9-5.9c0.7-2.1,1.4-4.1,2.1-6c0.7-1.9,1.3-3.6,1.9-5.1c0.6-1.5,1-2.7,1.3-3.5
			c0.4-1.1,0.5-1.8,0.4-2.3c-0.1-0.5-0.2-0.8-0.3-1.1c0-0.7,0.2-1.6,0.8-2.7c0.6-1.1,1.2-2.3,2.1-3.4c0.9-1.2,1.8-2.2,2.9-3
			c1.1-0.9,2.1-1.4,3.2-1.5c0.2,0,0.5,0,1,0c0.4,0,0.9,0.1,1.4,0.3c0.5,0.2,1,0.4,1.4,0.7c0.4,0.3,0.8,0.6,0.9,1.1
			c0.3,0.6,0.3,0.9,0,0.8s-0.6-0.2-0.8-0.1c-1.2,0.2-2.4,0.9-3.7,2.3c-1.3,1.4-2.5,3.1-3.8,5.2c-1.2,2.1-2.4,4.4-3.5,6.9
			c-1.1,2.5-2.2,5-3.2,7.5c-1,2.5-1.8,4.8-2.5,7c-0.7,2.2-1.2,3.9-1.6,5.1c-0.3,1.2-0.4,2-0.3,2.6c0.1,0.6,0.3,0.9,0.7,1
			c0.3,0.1,0.7,0,1.2-0.4c0.5-0.4,0.9-0.8,1.3-1.4c0.5-0.8,1-1.5,1.4-2.1c0.5-0.6,0.8-0.9,1.2-0.9c1.1-0.1,1.7,0.2,1.9,1
			c0.2,0.8,0.5,1.5,0.7,2.2c0.5,1.5,1.5,2.8,3,3.7c1.5,0.9,3.4,1.2,5.7,0.9c2.8-0.4,5.3-1.2,7.4-2.5c2.1-1.3,3.6-2.8,4.4-4.7
			c0.9-1.8,1-3.8,0.4-6c-0.6-2.2-2.2-4.4-4.7-6.6c-1-0.9-2.1-1.7-3.2-2.4c-1.2-0.7-2.3-1.5-3.3-2.2c-1-0.7-1.9-1.4-2.6-2
			c-0.8-0.6-1.2-1.2-1.3-1.7c-0.1-0.4-0.1-0.7,0.1-1.1c0.2-0.3,0.4-0.6,0.8-1c0.3-0.3,0.7-0.6,1.1-0.7s0.7-0.3,1.1-0.3
			c1.2-0.2,2.8-0.6,4.6-1.4c1.8-0.7,3.6-1.6,5.5-2.7c1.8-1,3.5-2.2,5.1-3.4c1.6-1.2,2.7-2.4,3.3-3.6c0.5-0.9,0.8-1.8,1-2.6
			c0.2-0.9,0.1-1.7-0.3-2.4c-0.4-0.7-1-1.3-2-1.8c-1-0.5-2.3-0.8-4-0.9c-1.8-0.1-4.1,0.1-6.9,0.6c-2.9,0.5-5.9,1.3-9.2,2.3
			c-3.2,1-6.5,2.2-9.8,3.7s-6.3,3.1-8.9,4.8c-2.6,1.8-4.8,3.6-6.4,5.7c-1.6,2-2.4,4.1-2.4,6.3c0,1,0.3,1.8,0.8,2.3
			c0.5,0.6,1.2,1,1.9,1.3c0.7,0.3,1.4,0.5,2.1,0.7c0.7,0.1,1.3,0.3,1.8,0.4c0.6,0.3,0.9,0.5,0.8,0.8c-0.1,0.3-0.5,0.4-1.1,0.4
			c-0.7,0-1.5-0.1-2.5-0.3c-1-0.2-2-0.6-2.9-1.1c-0.9-0.5-1.7-1.2-2.4-2.1c-0.7-0.9-1-1.9-0.9-3.1c0-0.1-0.1-0.3-0.2-0.6
			c-0.1-0.3-0.2-0.5-0.2-0.6c0-1.3,0.3-2.5,0.9-3.8c0.6-1.3,1.5-2.5,2.5-3.7c1-1.2,2.1-2.3,3.3-3.4c1.2-1.1,2.3-2,3.4-2.7
			c2-1.4,4.5-2.8,7.6-4.2c3.1-1.4,6.3-2.6,9.8-3.6c3.4-1,6.8-1.8,10.1-2.4c3.3-0.6,6.1-0.8,8.5-0.5c2.6,0.2,4.8,1,6.4,2.3
			c1.6,1.3,2.6,2.8,2.8,4.6c0.3,2.4-0.3,4.6-1.8,6.5c-1.5,1.9-3.4,3.5-5.8,4.8c-2.3,1.3-4.8,2.4-7.4,3.3c-2.6,0.8-4.8,1.4-6.6,1.7
			c2.4,1.1,4.9,2.3,7.4,3.6c2.5,1.3,4.6,2.9,6.2,4.7c1.6,1.8,2.6,3.9,2.9,6.2C61.1,191.5,60.2,194.2,58.2,197.3z"/>
		<path class="st2" d="M93.6,182.3c-1.4,2.8-3.2,5.4-5.2,7.7c-2.1,2.3-4.4,4.3-7,5.8c-1.9,1.1-3.9,1.7-6,2c-2.1,0.3-4,0.1-5.6-0.5
			c-1.6-0.6-2.8-1.7-3.6-3.3c-0.8-1.6-0.8-3.7,0-6.3c0.4-1.4,1.3-3.1,2.7-5.1c1.4-2,3-3.9,4.9-5.7c1.9-1.8,3.8-3.2,5.7-4.4
			c2-1.1,3.7-1.6,5.3-1.3c0.8,0.2,1.5,0.5,1.9,1c0.5,0.5,0.8,1.2,0.9,1.9c0.1,0.7,0.1,1.5,0,2.2c-0.1,0.8-0.3,1.4-0.6,2
			c-0.6,1.1-1.4,2.2-2.5,3.3c-1.1,1.1-2.3,2-3.5,2.8c-1.2,0.8-2.5,1.5-3.7,2.1c-1.3,0.6-2.3,0.9-3.2,1.1c-0.6,0.1-1,0-1.2-0.3
			c-0.2-0.3,0-0.6,0.6-0.7c1.2-0.3,2.7-1.1,4.5-2.4c1.8-1.3,3.3-2.7,4.7-4c0.3-0.3,0.6-0.7,1-1.1c0.4-0.5,0.7-0.9,1-1.4
			c0.3-0.5,0.5-1,0.7-1.5c0.2-0.5,0.2-1,0.2-1.5c-0.1-0.5-0.3-0.8-0.6-1c-0.4-0.1-0.7-0.1-1.2,0c-0.4,0.1-0.9,0.2-1.3,0.5
			c-0.4,0.2-0.8,0.4-1,0.6c-1.1,0.7-2.3,1.6-3.5,2.9c-1.2,1.2-2.3,2.6-3.4,4.1c-1.1,1.5-2,3-2.8,4.6c-0.8,1.6-1.3,3.2-1.6,4.7
			c-0.3,1.7-0.2,3,0.4,3.8c0.5,0.8,1.3,1.3,2.4,1.5s2.2,0.1,3.4-0.3s2.5-0.9,3.8-1.6c2.8-1.6,5.2-3.5,7.3-5.9c2.1-2.4,3.8-4.6,5-6.8
			c0.2-0.4,0.5-0.5,0.8-0.4C93.9,181.4,94,181.7,93.6,182.3z"/>
		<path class="st2" d="M97.3,193.6c-0.9,0.1-1.8,0-2.8-0.4c-1-0.4-1.9-0.9-2.6-1.6c-1.2-1.1-1.7-2.4-1.6-3.8c0.1-1.4,0.5-3,1.3-4.6
			c0.8-1.6,1.9-3.2,3.3-4.8c1.4-1.6,2.8-3,4.3-4.4c1.5-1.4,3-2.5,4.4-3.5c1.4-1,2.6-1.6,3.6-2c1.1-0.5,2.5-0.8,4-1
			c1.5-0.2,2.8,0,4,0.6c1,0.5,1.6,1.1,1.7,1.9c0.1,0.5-0.1,0.6-0.4,0.5c-0.5-0.6-1.2-0.9-1.9-1c-0.7-0.1-1.5-0.1-2.2,0
			c-2.1,0.3-4.3,1.3-6.6,2.9c-2.3,1.7-4.4,3.6-6.2,5.7c-0.5,0.6-1.2,1.5-2,2.7c-0.8,1.2-1.5,2.5-2.1,3.9c-0.6,1.4-1,2.7-1.2,4.1
			c-0.2,1.3,0.1,2.4,0.8,3.2c0.3,0.4,0.7,0.5,1.3,0.3c0.5-0.2,1.1-0.4,1.7-0.8c0.6-0.4,1.1-0.8,1.6-1.3c0.5-0.5,0.9-0.9,1.1-1.1
			c0.9-1,2.1-2.2,3.4-3.8c1.3-1.5,2.5-2.9,3.4-4.2c0.2-0.3,0.7-0.9,1.4-1.9c0.7-1,1.4-2,2.1-3c0.7-1,1.4-1.9,2-2.7
			c0.6-0.8,1-1.2,1.2-1.2c0.2,0,0.5,0,1,0c0.4,0,0.9,0.1,1.3,0.2s0.8,0.3,1,0.5c0.3,0.2,0.3,0.5,0.2,0.8c-1.2,2.2-2,4.5-2.5,6.7
			c-0.5,2.2-0.7,4-0.7,5.4c0,1.7,0.3,3,1.1,3.7c0.8,0.7,1.8,0.6,3-0.3c0.6-0.4,1.4-1.1,2.2-2c0.9-0.9,1.8-1.9,2.8-3.1
			c1-1.2,1.9-2.4,2.9-3.7c0.9-1.3,1.7-2.6,2.4-3.8c0.2-0.4,0.4-0.4,0.8-0.3c0.4,0.2,0.5,0.5,0.3,0.8c-0.3,0.8-0.8,1.7-1.4,2.7
			c-0.6,1.1-1.4,2.1-2.2,3.3c-0.8,1.1-1.7,2.2-2.6,3.3c-0.9,1.1-1.8,2-2.7,2.9c-0.6,0.5-1.3,1.1-2.2,1.6c-0.9,0.5-1.8,0.9-2.8,1.1
			c-1,0.2-1.9,0.1-2.8-0.2c-0.9-0.3-1.6-1-2.2-2.2c-0.3-0.5-0.4-1.1-0.5-1.9c-0.1-0.8-0.1-1.6-0.1-2.5c0-0.9,0.1-1.8,0.2-2.7
			c0.1-0.9,0.3-1.8,0.4-2.5c-0.3,0.2-0.9,1-1.8,2.3c-0.9,1.4-1.9,2.9-3.2,4.5c-1.2,1.6-2.6,3.1-4.1,4.5
			C100.4,192.6,98.8,193.4,97.3,193.6z"/>
		<path class="st2" d="M164.9,172.4c-0.3,0.8-0.7,1.7-1.3,2.7c-0.6,1-1.3,2.1-2.1,3.2c-0.8,1.1-1.7,2.3-2.6,3.4
			c-0.9,1.1-1.8,2.1-2.7,2.9c-0.6,0.5-1.3,1.1-2.2,1.6c-0.9,0.5-1.8,0.9-2.8,1.1c-1,0.2-1.9,0.1-2.8-0.2c-0.9-0.3-1.6-1-2.2-2.2
			c-0.3-0.5-0.4-1.2-0.5-2c-0.1-0.9-0.1-1.8-0.1-2.8c0-1,0.1-2,0.2-2.9c0.1-1,0.3-1.8,0.5-2.6c-0.3,0.2-0.7,1.1-1.3,2.5
			c-0.5,1.4-1.3,2.9-2.2,4.6c-0.9,1.6-2,3.1-3.2,4.5c-1.3,1.4-2.7,2.2-4.2,2.4c-0.8,0.1-1.8,0-3.1-0.3c-1.2-0.3-2.2-0.8-2.8-1.6
			c-0.6-0.7-0.9-1.5-1.1-2.6c-0.2-1.1-0.2-2.2-0.1-3.4c0.1-1.2,0.4-2.5,0.8-3.8c0.4-1.3,0.9-2.5,1.5-3.8c0.2-0.4,0.5-0.9,0.7-1.6
			c0.3-0.6,0.6-1.2,0.9-1.7c0.3-0.5,0.6-1,0.8-1.4s0.5-0.6,0.7-0.7c0.7-0.3,1.4-0.5,2.2-0.6c0.8-0.1,1.5-0.1,2,0
			c0.6,0.1,0.8,0.4,0.6,0.7c-0.1,0.4-0.3,0.6-0.5,0.9c-0.4,0.5-0.9,1.1-1.5,1.9c-0.6,0.8-1.2,1.7-1.8,2.7c-0.6,1.1-1.2,2.2-1.7,3.5
			c-0.6,1.3-1,2.6-1.3,4c-0.4,1.8-0.4,3.2-0.2,4.2c0.2,1,0.7,1.7,1.4,1.9c0.7,0.3,1.6,0.2,2.6-0.3c1-0.5,2.2-1.4,3.4-2.7
			c1.3-1.4,2.6-3.2,3.9-5.5c1.3-2.3,2.6-4.6,3.7-6.9c0.3-0.6,0.7-1.3,1-2.2c0.3-0.9,0.7-1.8,1.1-2.7c0.4-0.9,0.7-1.8,1.1-2.6
			c0.3-0.8,0.6-1.4,0.8-1.9c0.3,0,0.7,0,1.3,0c0.6,0,1.1,0.1,1.6,0.2c0.5,0.1,0.9,0.3,1.3,0.5c0.3,0.2,0.4,0.5,0.3,0.9
			c-0.2,0.4-0.5,1.1-0.8,1.9c-0.3,0.8-0.7,1.7-1.1,2.6c-0.4,0.9-0.8,1.8-1.1,2.7c-0.4,0.9-0.6,1.6-0.8,2.2c-0.9,2.6-1.4,5.3-1.4,8.1
			c0,1.7,0.3,3,1.1,3.7c0.8,0.7,1.8,0.6,3-0.3c0.6-0.4,1.4-1.1,2.2-2c0.9-0.9,1.8-1.9,2.8-3.1c1-1.2,1.9-2.4,2.9-3.7
			c0.9-1.3,1.7-2.6,2.4-3.8c0.2-0.4,0.4-0.5,0.8-0.3C164.9,171.8,165,172,164.9,172.4z"/>
		<path class="st2" d="M181.4,158.4c0.3,0,0.5,0,0.8,0c0.3,0,0.4,0.1,0.5,0.2c0.1,0.1,0,0.2-0.2,0.4c-0.2,0.2-0.8,0.5-1.6,0.8
			c-0.6,0.3-1.7,0.7-3.4,1.2c-1.7,0.5-3.5,1-5.3,1.4c-0.4,1-0.8,1.9-1.1,2.6c-0.3,0.7-0.5,1.3-0.6,1.6c-0.9,2.5-1.6,4.8-2.3,6.9
			c-0.7,2.1-1,3.8-0.9,5.1c0,1.7,0.3,3,1.1,3.7c0.8,0.7,1.8,0.6,3-0.3c0.6-0.4,1.4-1.1,2.2-2c0.9-0.9,1.8-1.9,2.8-3.1
			c1-1.2,1.9-2.4,2.9-3.7c0.9-1.3,1.7-2.6,2.4-3.8c0.2-0.4,0.4-0.5,0.8-0.3c0.4,0.2,0.5,0.4,0.3,0.8c-0.3,0.8-0.7,1.7-1.3,2.7
			s-1.3,2.1-2.1,3.2c-0.8,1.1-1.7,2.3-2.6,3.4c-0.9,1.1-1.8,2.1-2.7,2.9c-0.6,0.5-1.3,1.1-2.2,1.6c-0.9,0.5-1.8,0.9-2.8,1.1
			c-1,0.2-1.9,0.1-2.8-0.2c-0.9-0.3-1.6-1-2.2-2.2c-0.5-0.9-0.5-2.3-0.3-4.2c0.3-1.9,0.7-3.8,1.3-5.8c-0.3,0.5-0.6,1.1-0.9,1.8
			c-0.3,0.7-0.9,1.5-1.6,2.6c-0.3,0.5-0.7,0.6-1,0.3c-0.3-0.3-0.3-0.7-0.1-1.2c1.2-1.9,2.2-3.6,3-5.2c0.9-1.6,1.5-2.8,2-3.8
			c0-0.1,0.1-0.4,0.3-1c0.2-0.6,0.5-1.4,0.9-2.4c-0.4,0.1-0.7,0.2-1,0.2s-0.5,0.1-0.7,0.1c-0.4,0.1-0.8,0-1.1-0.3
			c-0.3-0.3-0.4-0.7-0.2-1.2c0.2-0.8,0.8-1.3,1.6-1.5c0.8-0.2,1.6-0.4,2.3-0.6c0.1-0.1,0.2-0.1,0.3-0.1c0.3-0.9,0.7-1.8,1-2.8
			c0.3-0.9,0.7-1.7,0.9-2.5c0.3-0.7,0.5-1.4,0.7-1.8c0.2-0.5,0.3-0.8,0.3-0.8c0.8-1.8,1.3-3,1.5-3.6c0.3-0.6,0.6-1,1.2-1.2
			c0.6-0.1,1.2-0.2,1.8-0.1c0.6,0.1,1.1,0.2,1.4,0.5c0.4,0.5,0.5,1.1,0.3,1.8c-0.2,0.7-0.4,1.2-0.6,1.6c-0.1,0.4-0.4,0.7-0.7,0.8
			c-0.3,0.1-0.6,0.5-0.8,1.1c-0.5,1.1-0.9,2.3-1.4,3.5c-0.5,1.2-1,2.4-1.5,3.6l1-0.2c1.2-0.3,2.4-0.6,3.4-0.9
			C178.6,158.8,179.9,158.6,181.4,158.4z"/>
		<path class="st2" d="M184.2,164.6c-0.2-0.2-0.2-0.5,0-1c0.3-1.3,0.6-2.4,0.9-3.3c0.3-0.9,0.7-1.5,1.2-1.7c0.5-0.1,1.1-0.2,1.6-0.1
			c0.6,0.1,1,0.3,1.2,0.6c0.3,0.5,0.4,1.1,0.1,1.9c-0.3,0.8-0.6,1.9-1,3.2c-0.9,2.5-1.6,4.8-2.3,6.9c-0.7,2.1-1,3.8-0.9,5.1
			c0,1.7,0.3,3,1.1,3.7c0.8,0.7,1.8,0.6,3-0.3c0.6-0.4,1.4-1.1,2.2-2c0.9-0.9,1.8-1.9,2.8-3.1c1-1.2,1.9-2.4,2.9-3.7
			c0.9-1.3,1.7-2.6,2.4-3.8c0.2-0.4,0.4-0.5,0.8-0.3c0.4,0.2,0.5,0.4,0.3,0.8c-0.3,0.8-0.7,1.7-1.3,2.7c-0.6,1-1.3,2.1-2.1,3.2
			c-0.8,1.1-1.7,2.3-2.6,3.4c-0.9,1.1-1.8,2.1-2.7,2.9c-0.6,0.5-1.3,1.1-2.2,1.6c-0.9,0.5-1.8,0.9-2.8,1.1c-1,0.2-1.9,0.1-2.8-0.2
			c-0.9-0.3-1.6-1-2.2-2.2c-0.5-0.9-0.5-2.3-0.3-4.2c0.3-1.9,0.7-3.8,1.3-5.8c-0.3,0.5-0.6,1.1-0.9,1.8c-0.3,0.7-0.9,1.5-1.6,2.6
			c-0.3,0.5-0.7,0.6-1,0.3c-0.3-0.3-0.3-0.7-0.1-1.2c1.2-1.9,2.2-3.6,3-5.2C183.1,166.9,183.7,165.6,184.2,164.6z M193.4,148.9
			c0,0.2,0,0.5-0.2,1c-0.1,0.5-0.3,0.9-0.6,1.4c-0.2,0.5-0.5,0.9-0.7,1.3c-0.3,0.4-0.5,0.6-0.7,0.6c-0.7,0.1-1.5,0.1-2.2,0.1
			c-0.8,0-1.2-0.5-1.3-1.3c0-0.1,0.2-0.3,0.6-0.8c0.4-0.5,0.9-0.9,1.4-1.5s1-1,1.4-1.4c0.4-0.4,0.7-0.7,0.8-0.9
			c0.7-0.8,1.2-1.2,1.4-1.2c0.3-0.1,0.4,0.1,0.3,0.4c0,0.3-0.1,0.7-0.2,1.2C193.3,148.1,193.3,148.5,193.4,148.9z"/>
		<path class="st2" d="M206.3,159.8c0.2-1.2,0.6-2.7,1.1-4.5c0.5-1.8,1-3.8,1.7-5.8c0.6-2.1,1.3-4.1,2-6.1c0.7-2,1.4-3.8,2.1-5.2
			c0.5-1.1,1.1-2.3,1.9-3.5c0.7-1.2,1.6-2.3,2.5-3.2c0.9-0.9,2-1.7,3.2-2.2c1.2-0.6,2.4-0.7,3.8-0.5c0.3,0.1,0.7,0.1,0.9,0.2
			c0.3,0,0.5,0.1,0.7,0.2c1.7,0.7,2.7,1.8,2.9,3.3c0.2,1.5,0,3.2-0.6,5.2c-0.5,1.7-1.4,3.7-2.7,6c-1.3,2.3-2.8,4.7-4.5,7.2
			c-1.7,2.5-3.5,5-5.4,7.4c-1.9,2.4-3.8,4.6-5.5,6.4c1.4-0.3,2.7-0.6,4.1-1c1.4-0.3,2.8-0.6,4.2-0.8c0.3,0,0.7-0.1,1,0
			c0.4,0,0.6,0.1,0.8,0.1c0.1,0.1,0.1,0.2-0.1,0.4c-0.2,0.2-0.7,0.5-1.5,0.9c-0.3,0.2-0.9,0.4-1.7,0.6c-0.8,0.2-1.7,0.5-2.8,0.8
			c-1.1,0.3-2.2,0.6-3.4,1c-1.2,0.3-2.4,0.6-3.6,0.9c-0.4,1.5-0.8,3.3-1.3,5.2c-0.4,2-0.9,4-1.4,6.1c-0.5,2.1-1,4.1-1.4,6.1
			c-0.4,2-0.8,3.8-1.2,5.5c-0.4,1.8-0.6,3.1-0.6,3.9c-0.1,0.8-0.1,1.5,0,2c0,0.5,0.1,0.8,0.1,1.1c0,0.3,0,0.7-0.1,1.2
			c-0.6,2.6-1,4.3-1.2,5.2c-0.2,0.9-0.6,1.6-1.1,2c-0.3,0.2-0.7,0.5-1.3,0.9c-0.6,0.3-1.2,0.6-1.7,0.8s-1,0.3-1.4,0.2
			c-0.4,0-0.4-0.4-0.2-1c0.1-0.3,0.3-1.1,0.7-2.6c0.4-1.4,0.8-3.2,1.4-5.3c0.6-2.1,1.2-4.5,1.8-7.1c0.7-2.6,1.3-5.3,2-8.1
			c0.7-2.7,1.4-5.4,2-8.1c0.6-2.7,1.3-5.1,1.8-7.3c-1,0.3-1.8,0.5-2.5,0.6c-0.7,0.2-1.2,0.3-1.6,0.3c-0.5,0.1-1,0-1.5-0.3
			c-0.5-0.3-0.8-0.7-0.9-1.2c0-0.3,0.1-0.7,0.5-1s0.8-0.7,1.2-0.9c0.5-0.3,1-0.5,1.5-0.6c0.5-0.2,0.9-0.3,1.3-0.3
			c0.7-0.1,1.1,0.1,1.5,0.5c0.3,0.4,0.6,0.6,1,0.5l0.2,0c0.4-1.5,0.7-2.8,1-3.8C206,161.1,206.2,160.3,206.3,159.8z M208.1,165
			c1.8-1.7,3.6-3.8,5.3-6.2c1.8-2.4,3.5-4.9,5.1-7.6c1.6-2.6,3.1-5.2,4.4-7.7c1.3-2.5,2.4-4.8,3.2-6.7c0.5-1.1,0.7-2.1,0.8-3.2
			c0.1-1-0.1-1.8-0.4-2.4c-0.3-0.6-0.8-0.8-1.5-0.7c-0.7,0.1-1.6,0.7-2.7,1.8c-0.7,0.7-1.5,1.7-2.3,3c-0.8,1.3-1.7,2.7-2.5,4.2
			c-0.8,1.6-1.6,3.2-2.4,4.8c-0.8,1.7-1.4,3.3-2,4.7c-0.7,1.8-1.3,3.5-1.9,5.2c-0.5,1.7-1,3.2-1.4,4.6c-0.4,1.4-0.7,2.5-1,3.3
			c-0.3,0.9-0.4,1.4-0.4,1.6c0,0.1-0.1,0.3-0.1,0.5C208.2,164.5,208.2,164.7,208.1,165z"/>
		<path class="st2" d="M258.3,159.9c-0.3,0.8-0.7,1.7-1.3,2.7c-0.6,1-1.3,2.1-2.1,3.2s-1.7,2.3-2.6,3.4c-0.9,1.1-1.8,2.1-2.7,2.9
			c-0.6,0.5-1.3,1.1-2.2,1.6c-0.9,0.5-1.8,0.9-2.8,1.1s-1.9,0.1-2.8-0.2c-0.9-0.3-1.6-1-2.2-2.2c-0.3-0.5-0.4-1.2-0.5-2
			c-0.1-0.9-0.1-1.8-0.1-2.8c0-1,0.1-2,0.2-2.9c0.1-1,0.3-1.8,0.5-2.6c-0.3,0.2-0.7,1.1-1.3,2.5c-0.5,1.4-1.3,2.9-2.2,4.6
			c-0.9,1.6-2,3.1-3.2,4.5c-1.3,1.4-2.7,2.2-4.2,2.4c-0.8,0.1-1.8,0-3-0.3c-1.2-0.3-2.2-0.8-2.8-1.6c-0.6-0.7-0.9-1.5-1.1-2.6
			c-0.2-1.1-0.2-2.2-0.1-3.4c0.1-1.2,0.4-2.5,0.8-3.8c0.4-1.3,0.9-2.5,1.5-3.8c0.2-0.4,0.5-0.9,0.7-1.6c0.3-0.6,0.6-1.2,0.9-1.7
			c0.3-0.5,0.6-1,0.8-1.4c0.3-0.4,0.5-0.6,0.7-0.7c0.7-0.3,1.4-0.5,2.2-0.6c0.8-0.1,1.5-0.1,2,0c0.6,0.1,0.8,0.4,0.6,0.7
			c-0.1,0.4-0.3,0.6-0.5,0.9c-0.4,0.5-0.9,1.1-1.5,1.9c-0.6,0.8-1.2,1.7-1.8,2.7c-0.6,1.1-1.2,2.2-1.7,3.5c-0.6,1.3-1,2.6-1.3,4
			c-0.4,1.8-0.4,3.2-0.2,4.2c0.2,1,0.7,1.7,1.4,1.9c0.7,0.3,1.6,0.2,2.6-0.3c1-0.5,2.2-1.4,3.4-2.7c1.3-1.4,2.6-3.2,3.9-5.5
			c1.3-2.3,2.6-4.6,3.7-6.9c0.3-0.6,0.7-1.3,1-2.2c0.3-0.9,0.7-1.8,1.1-2.7c0.4-0.9,0.7-1.8,1.1-2.6c0.3-0.8,0.6-1.4,0.8-1.9
			c0.3,0,0.7,0,1.3,0c0.6,0,1.1,0.1,1.6,0.2c0.5,0.1,0.9,0.3,1.3,0.5c0.3,0.2,0.4,0.5,0.3,0.9c-0.2,0.4-0.5,1.1-0.8,1.9
			c-0.3,0.8-0.7,1.7-1.1,2.6c-0.4,0.9-0.8,1.8-1.1,2.7c-0.3,0.9-0.6,1.6-0.8,2.2c-0.9,2.6-1.4,5.3-1.4,8.1c0,1.7,0.3,3,1.1,3.7
			c0.8,0.7,1.8,0.6,3-0.3c0.6-0.4,1.4-1.1,2.2-2c0.9-0.9,1.8-1.9,2.8-3.1c1-1.2,1.9-2.4,2.9-3.7c0.9-1.3,1.7-2.6,2.4-3.8
			c0.2-0.4,0.4-0.5,0.8-0.3C258.3,159.3,258.4,159.6,258.3,159.9z"/>
		<path class="st2" d="M260.3,160.7c-0.2,0.8-0.3,1.6-0.4,2.2c-0.1,0.6-0.1,1.2-0.1,1.6c0,1,0.1,2,0.3,2.9c0.2,0.9,0.6,1.6,1,2.2
			c0.5,0.6,1.1,0.9,1.8,0.9c0.7,0,1.7-0.4,2.8-1.2c0.7-0.5,1.6-1.2,2.5-2.2c0.9-1,1.8-2,2.8-3.2c0.9-1.2,1.9-2.4,2.7-3.6
			c0.9-1.2,1.6-2.3,2.1-3.3c0.2-0.4,0.4-0.5,0.8-0.3c0.4,0.2,0.4,0.5,0.2,1c-0.3,0.8-0.8,1.7-1.4,2.7c-0.6,1-1.4,2.1-2.2,3.3
			c-0.8,1.2-1.7,2.3-2.7,3.4c-0.9,1.1-1.8,2.1-2.7,2.9c-0.7,0.7-1.5,1.3-2.3,1.7c-0.8,0.4-1.6,0.7-2.4,0.8c-2.4,0.3-4.1-0.1-5.1-1.1
			c-1-1.1-1.6-2.5-1.7-4.4c-0.1-1.3,0-2.9,0.3-4.8c0.3-1.9,0.7-4,1.3-6.2c0.6-2.2,1.2-4.5,2-6.9c0.8-2.4,1.6-4.7,2.4-6.8
			c0.8-2.2,1.7-4.2,2.5-6.1c0.8-1.9,1.6-3.4,2.3-4.7c0.6-1.1,1.2-2.2,1.9-3.3c0.7-1.1,1.5-2.1,2.3-3.1s1.8-1.8,2.9-2.5
			c1-0.7,2.3-1.1,3.6-1.3c0.9-0.1,1.7-0.1,2.4,0.2c0.8,0.2,1.4,0.7,1.8,1.3c0.5,0.6,0.7,1.5,0.8,2.5c0.1,1-0.2,2.2-0.7,3.5
			c-2.5,6.1-5.6,11.8-9.5,17C268.8,150.8,264.6,155.9,260.3,160.7z M262.6,151.6c-0.3,1-0.6,1.9-0.9,2.9c-0.2,0.9-0.5,1.9-0.7,2.8
			c1.8-1.6,3.6-3.6,5.5-6.2c1.9-2.5,3.7-5.2,5.4-8c1.7-2.8,3.2-5.6,4.6-8.4c1.4-2.8,2.5-5.3,3.3-7.5c0.8-2,0.8-3.4,0-4
			c-0.8-0.6-2-0.2-3.5,1.4c-2.2,2.2-4.1,4.8-5.7,7.7c-1.6,2.9-3.1,6.1-4.4,9.4c-0.4,0.8-0.9,2.2-1.5,4.1
			C263.9,147.8,263.3,149.7,262.6,151.6z"/>
	</g>
	<g>
		<path class="st1" d="M69.6,213.7c0-0.4,0-0.8-0.2-1.1c-0.2-0.4-0.4-0.7-0.6-1c-0.3-0.3-0.7-0.6-1.1-0.8c-0.4-0.2-0.8-0.3-1.2-0.3
			c-0.4,0-0.8,0.1-1.1,0.2c-0.4,0.1-0.7,0.4-1,0.7c-0.3,0.3-0.6,0.7-0.7,1c-0.2,0.4-0.3,0.7-0.3,1.1c0,0.4,0.1,0.8,0.2,1.1
			c0.2,0.4,0.4,0.7,0.7,1.1c0.3,0.4,0.7,0.6,1.1,0.8c0.4,0.2,0.8,0.2,1.1,0.2l0.3,1.5c-0.6,0-1.2-0.1-1.8-0.3
			c-0.6-0.2-1.2-0.6-1.7-1.2c-0.5-0.5-0.9-1.1-1.1-1.6c-0.3-0.6-0.4-1.2-0.4-1.7c0-0.6,0.1-1.1,0.3-1.7c0.2-0.5,0.6-1,1-1.5
			c0.5-0.5,1-0.8,1.6-1c0.6-0.2,1.1-0.3,1.7-0.2c0.6,0.1,1.1,0.2,1.7,0.5c0.6,0.3,1.1,0.7,1.6,1.2c0.2,0.2,0.4,0.4,0.6,0.7
			c0.2,0.3,0.3,0.5,0.5,0.8c0.1,0.3,0.2,0.6,0.3,0.9c0.1,0.3,0.1,0.6,0.1,0.9L69.6,213.7z"/>
		<path class="st1" d="M72.7,214l1.2,1.1l-4.7,5.2l2.9,2.6l-0.9,1l-4.1-3.7L72.7,214z"/>
		<path class="st1" d="M77.7,218.4l4.7,3.8l-0.8,1l-3.4-2.8l-1.3,1.6l3.3,2.6l-0.8,1L76,223l-1.5,1.8l3.6,2.9l-0.8,1l-4.9-4
			L77.7,218.4z"/>
		<path class="st1" d="M86.4,225.1l1.2,0.8l-1.5,9l-1.5-1.1l0.4-2l-3.2-2.3l-1.8,1.1l-1.5-1L86.4,225.1z M85.1,230.5l0.8-3.6
			l-3.1,1.9L85.1,230.5z"/>
		<path class="st1" d="M91.5,228.7l1.9,1.1l0.5,7.5l0,0l3.2-5.3l1.4,0.8l-4.2,7.1l-1.8-1.1l-0.5-7.7l0,0l-3.3,5.5l-1.4-0.8
			L91.5,228.7z"/>
		<path class="st1" d="M111.6,245.9l1.4,0.5l-2.1,2.6l-1.2-0.4L111.6,245.9z"/>
		<path class="st1" d="M125.7,251.2c-0.5,0.1-1,0.1-1.6,0.1c-0.6,0-1.2-0.1-1.9-0.3c-0.7-0.2-1.3-0.4-1.9-0.8
			c-0.5-0.4-1-0.8-1.3-1.3c-0.3-0.5-0.6-1-0.7-1.6c-0.1-0.6-0.1-1.2,0.1-1.8c0.2-0.6,0.4-1.2,0.8-1.7c0.4-0.5,0.8-0.8,1.3-1.1
			c0.5-0.3,1.1-0.4,1.7-0.5c0.6-0.1,1.3,0,2,0.2c0.7,0.2,1.3,0.4,1.9,0.8c0.5,0.3,1,0.7,1.2,1.1l-1.4,0.8c-0.2-0.3-0.4-0.6-0.8-0.8
			c-0.4-0.3-0.8-0.4-1.3-0.6c-0.5-0.1-0.9-0.1-1.3-0.1c-0.4,0.1-0.8,0.2-1.1,0.4c-0.3,0.2-0.6,0.5-0.9,0.8c-0.2,0.3-0.4,0.7-0.5,1.1
			c-0.1,0.4-0.1,0.8-0.1,1.2c0.1,0.4,0.2,0.8,0.4,1.1c0.2,0.3,0.5,0.6,0.8,0.9c0.4,0.2,0.8,0.4,1.3,0.6c0.7,0.2,1.3,0.2,1.8,0.2
			l0.5-2l-1.9-0.5l0.3-1.2l3.4,0.8L125.7,251.2z"/>
		<path class="st1" d="M129.5,243.9l3.1,0.5c0.4,0.1,0.8,0.2,1.2,0.3c0.4,0.1,0.7,0.3,1,0.6c0.3,0.2,0.5,0.5,0.6,0.8
			c0.1,0.3,0.2,0.7,0.1,1.1c-0.1,0.6-0.4,1-0.8,1.4c-0.4,0.3-1,0.5-1.6,0.5l1.8,4l-1.9-0.3l-1.5-3.8l-1.2-0.2l-0.5,3.5l-1.6-0.3
			L129.5,243.9z M131.8,247.9c0.2,0,0.5,0.1,0.7,0.1c0.2,0,0.5,0,0.6-0.1c0.2-0.1,0.4-0.2,0.5-0.3c0.1-0.1,0.2-0.3,0.3-0.6
			c0-0.2,0-0.4-0.1-0.6c-0.1-0.2-0.2-0.3-0.4-0.4c-0.2-0.1-0.3-0.2-0.6-0.3c-0.2-0.1-0.4-0.1-0.6-0.1l-1.5-0.2l-0.4,2.3L131.8,247.9
			z"/>
		<path class="st1" d="M137.4,245.1l6,0.5l-0.1,1.3l-4.4-0.3l-0.2,2.1l4.2,0.3l-0.1,1.2l-4.2-0.3l-0.2,2.3l4.7,0.3l-0.1,1.3
			l-6.3-0.5L137.4,245.1z"/>
		<path class="st1" d="M145.2,245.6l6.1,0l0,1.3l-4.4,0l0,2.1l4.2,0l0,1.2l-4.2,0l0,2.3l4.7,0l0,1.3l-6.3,0L145.2,245.6z"/>
		<path class="st1" d="M153,245.5l2.1-0.2l4.9,5.7l0,0l-0.6-6.2l1.6-0.2l0.9,8.2l-2.1,0.2l-5-5.9l0,0l0.7,6.4l-1.6,0.2L153,245.5z"
			/>
		<g>
			<path class="st1" d="M188.6,243.3l2.7,1.1l-1.9,0.7l-1.3-0.5c-0.2,0.4-0.4,0.8-0.8,1.1c-0.3,0.3-0.8,0.6-1.4,0.9
				c-0.4,0.1-0.8,0.2-1.1,0.3c-0.4,0-0.7,0-1.1-0.1c-0.3-0.1-0.6-0.3-0.9-0.5c-0.3-0.2-0.5-0.5-0.6-0.9c-0.1-0.3-0.1-0.6-0.1-0.8
				c0-0.3,0.1-0.5,0.2-0.8c0.1-0.2,0.2-0.5,0.4-0.7c0.2-0.2,0.4-0.4,0.6-0.6c-0.4-0.2-0.7-0.4-1-0.6c-0.3-0.2-0.5-0.5-0.6-0.8
				c-0.1-0.3-0.2-0.6-0.1-0.9c0.1-0.3,0.2-0.6,0.3-0.8c0.2-0.2,0.4-0.5,0.7-0.6c0.3-0.2,0.5-0.3,0.8-0.4c0.3-0.1,0.6-0.2,0.9-0.2
				c0.3,0,0.6,0,0.9,0.1c0.3,0.1,0.5,0.2,0.7,0.4c0.2,0.2,0.4,0.4,0.5,0.8c0.1,0.2,0.1,0.5,0.1,0.7c0,0.2-0.1,0.5-0.2,0.7
				c-0.1,0.2-0.2,0.4-0.4,0.7c-0.2,0.2-0.4,0.4-0.6,0.6l1.9,0.8l0.5-1.8l1.7-0.6L188.6,243.3z M184.4,243c-0.1,0.1-0.3,0.2-0.4,0.4
				c-0.1,0.1-0.2,0.3-0.3,0.4c-0.1,0.1-0.1,0.3-0.1,0.5c0,0.2,0,0.3,0.1,0.5c0.1,0.2,0.2,0.3,0.3,0.5c0.1,0.1,0.3,0.2,0.5,0.3
				c0.2,0.1,0.4,0.1,0.5,0.1c0.2,0,0.4,0,0.5-0.1c0.4-0.1,0.6-0.3,0.8-0.5c0.2-0.2,0.4-0.5,0.5-0.8L184.4,243z M183.9,239.3
				c-0.3,0.1-0.5,0.3-0.6,0.5c-0.1,0.2-0.2,0.5-0.1,0.7c0.1,0.2,0.2,0.4,0.4,0.6c0.2,0.2,0.5,0.3,0.8,0.4c0.1-0.1,0.3-0.3,0.4-0.4
				c0.1-0.1,0.2-0.3,0.3-0.4c0.1-0.1,0.1-0.3,0.1-0.4c0-0.1,0-0.3-0.1-0.4c-0.1-0.2-0.3-0.4-0.5-0.5
				C184.4,239.2,184.1,239.2,183.9,239.3z"/>
			<path class="st1" d="M192.4,234.9l1.5-0.7l3,6.3l3.5-1.7l0.6,1.2l-5,2.3L192.4,234.9z"/>
			<path class="st1" d="M198.4,232l1.4-0.8l3.8,7.3l-1.4,0.8L198.4,232z"/>
			<path class="st1" d="M203.9,230.5l-2.4,1.4l-0.7-1.1l6.2-3.7l0.7,1.1l-2.4,1.4l3.5,6l-1.4,0.8L203.9,230.5z"/>
			<path class="st1" d="M210.6,226.4l-2.3,1.6l-0.7-1.1l6-4.1l0.7,1.1l-2.3,1.6l3.9,5.8l-1.3,0.9L210.6,226.4z"/>
			<path class="st1" d="M214.3,222.2l4.8-3.8l0.8,1l-3.5,2.7l1.3,1.7l3.3-2.6l0.8,1l-3.3,2.6l1.5,1.8l3.7-2.9l0.8,1l-4.9,3.9
				L214.3,222.2z"/>
			<path class="st1" d="M220.4,217.3l2.3-2.1c0.3-0.3,0.7-0.5,1-0.8c0.4-0.2,0.7-0.4,1.1-0.4c0.4-0.1,0.7-0.1,1.1,0
				c0.3,0.1,0.7,0.3,1,0.6c0.4,0.4,0.6,0.9,0.6,1.5c0,0.5-0.2,1.1-0.6,1.6l4.3,1.1l-1.4,1.3l-3.9-1.2l-0.9,0.8l2.4,2.6l-1.2,1.1
				L220.4,217.3z M225,217.9c0.2-0.2,0.3-0.3,0.5-0.5c0.2-0.2,0.3-0.4,0.3-0.6c0.1-0.2,0.1-0.4,0.1-0.6c0-0.2-0.1-0.4-0.3-0.6
				c-0.2-0.2-0.3-0.3-0.5-0.3c-0.2,0-0.4,0-0.5,0c-0.2,0.1-0.4,0.1-0.6,0.3c-0.2,0.1-0.3,0.3-0.5,0.4l-1.1,1l1.6,1.7L225,217.9z"/>
			<path class="st1" d="M232.3,214.1l-2.2,2.2l-0.9-0.8l2.2-2.2L232.3,214.1z"/>
			<path class="st1" d="M229.2,208.6l3.9-4.5l1,0.8l-2.8,3.2l1.7,1.5l2.6-3.1l0.9,0.8l-2.6,3.1l2.6,2.3l-1.1,1.2L229.2,208.6z"/>
			<path class="st1" d="M233.9,203.2l1.9-2.6c0.3-0.3,0.5-0.7,0.8-0.9c0.3-0.3,0.6-0.5,1-0.6c0.3-0.1,0.7-0.2,1-0.2
				c0.4,0,0.7,0.2,1.1,0.4c0.5,0.4,0.8,0.8,0.8,1.3c0.1,0.5,0,1.1-0.3,1.7l4.4,0.2l-1.2,1.6l-4.1-0.4l-0.7,1l2.8,2.1l-1,1.3
				L233.9,203.2z M238.5,202.9c0.1-0.2,0.3-0.4,0.4-0.6c0.1-0.2,0.2-0.4,0.2-0.6c0-0.2,0-0.4,0-0.6c-0.1-0.2-0.2-0.4-0.4-0.5
				c-0.2-0.1-0.4-0.2-0.5-0.2c-0.2,0-0.4,0.1-0.5,0.1c-0.2,0.1-0.3,0.2-0.5,0.4c-0.2,0.2-0.3,0.3-0.4,0.5l-0.9,1.2l1.9,1.4
				L238.5,202.9z"/>
			<path class="st1" d="M238.6,196.6l3.2-5.2l1.1,0.7l-2.3,3.8l1.8,1.1l2.2-3.6l1.1,0.6l-2.2,3.6l2,1.2l2.4-4l1.1,0.7l-3.3,5.4
				L238.6,196.6z"/>
			<path class="st1" d="M242.6,190l2.7-5.4l1.2,0.6l-2,4l1.9,0.9l1.9-3.8l1.1,0.5l-1.8,3.8l2.1,1l2.1-4.2l1.2,0.6l-2.8,5.6
				L242.6,190z"/>
		</g>
		<g>
			<path class="st1" d="M99.7,233.5l5.4,2.8l-0.6,1.1l-3.9-2l-1,1.9l3.7,1.9l-0.6,1.1l-3.7-1.9l-1.1,2.1l4.1,2.1l-0.6,1.2l-5.6-2.9
				L99.7,233.5z"/>
			<path class="st1" d="M106.3,236.8l2.9,1.2c0.4,0.2,0.8,0.4,1.1,0.6c0.3,0.2,0.6,0.5,0.8,0.8c0.2,0.3,0.4,0.6,0.4,1
				c0.1,0.4,0,0.7-0.2,1.1c-0.2,0.6-0.6,0.9-1.1,1.1c-0.5,0.2-1.1,0.2-1.7,0.1l0.8,4.3l-1.8-0.8l-0.6-4.1l-1.1-0.5l-1.4,3.2
				l-1.5-0.6L106.3,236.8z M107.7,241.2c0.2,0.1,0.4,0.2,0.7,0.2c0.2,0.1,0.4,0.1,0.6,0.1c0.2,0,0.4-0.1,0.6-0.2s0.3-0.3,0.4-0.5
				c0.1-0.2,0.1-0.4,0.1-0.6c0-0.2-0.1-0.3-0.3-0.5c-0.1-0.1-0.3-0.3-0.5-0.4s-0.4-0.2-0.6-0.3l-1.4-0.6l-0.9,2.2L107.7,241.2z"/>
		</g>
		<g>
			<path class="st1" d="M162.3,244.3l6-1.1l0.2,1.3l-4.4,0.8l0.4,2.1l4.1-0.8l0.2,1.2l-4.1,0.8l0.4,2.3l4.6-0.9l0.2,1.3l-6.2,1.2
				L162.3,244.3z"/>
			<path class="st1" d="M169.6,242.8l3.1-0.8c0.4-0.1,0.8-0.2,1.2-0.2c0.4,0,0.8,0,1.1,0.1c0.4,0.1,0.7,0.3,0.9,0.5
				c0.3,0.2,0.5,0.6,0.6,1c0.2,0.6,0.1,1.1-0.2,1.6c-0.3,0.5-0.7,0.8-1.3,1.1l3.3,2.9l-1.9,0.5l-3-2.8l-1.1,0.3l0.9,3.4l-1.6,0.4
				L169.6,242.8z M173.4,245.5c0.2-0.1,0.4-0.1,0.7-0.2c0.2-0.1,0.4-0.2,0.6-0.3c0.2-0.1,0.3-0.3,0.3-0.5c0.1-0.2,0.1-0.4,0-0.6
				c-0.1-0.2-0.2-0.4-0.3-0.5c-0.1-0.1-0.3-0.2-0.5-0.2c-0.2,0-0.4,0-0.6,0c-0.2,0-0.4,0.1-0.6,0.1l-1.4,0.4l0.6,2.2L173.4,245.5z"
				/>
		</g>
	</g>
</g>
<g id="Layer_3">
	<g>
		<path class="st6" d="M172.9,83.3l-4.6,3.4l1.8,5.5l-4.7-3.4l-4.7,3.4l1.8-5.5l-4.6-3.4h5.7l1.8-5.5l1.8,5.5H172.9z"/>
	</g>
</g>
</svg>
